<svg width="137" height="129" fill="none" xmlns="http://www.w3.org/2000/svg"><g clip-path="url('#clip0_1_13606')"><path d="M65.587 116.558v6.969l.137-.087a10.933 10.933 0 0 0 3.415-3.729l.15-5.349a21.198 21.198 0 0 0-3.207 1.796 6.766 6.766 0 0 0-.495.405v-.005Zm.329 7.099c-.108.075-.22.142-.33.213v5.081H66.8v-.626l.674.676h1.404l.233-8.33a13.813 13.813 0 0 1-3.194 2.986Zm2.615-13.595a9.42 9.42 0 0 1-1.174.972c-.55.376-1.075.631-1.57.769a2.929 2.929 0 0 1-.404.083c.07.493.141.99.204 1.482v2.719c.337-.276.687-.543 1.058-.794a24.016 24.016 0 0 1 2.72-1.595c.09-.714.187-1.432.282-2.146a6.821 6.821 0 0 0-.37-.635c-.283-.421-.533-.705-.746-.86v.005Zm-.204-.163c-.937-.856-2.011-.869-3.232-.038l-.008.008c.092.598.18 1.199.262 1.796.475-.034 1.1-.309 1.883-.844a6.386 6.386 0 0 0 1.095-.922Zm1.562-.105c.067-.463.13-.931.196-1.394-.233.325-.475.647-.733.956.191.129.37.28.537.442v-.004Zm-3.378-6.518c.5-1.666.296-3.16-.603-4.492-.692-1.023-1.537-1.195-2.533-.518a2.263 2.263 0 0 0-.312.263 384.124 384.124 0 0 1 1.458 7.875c.94-.819 1.607-1.858 1.986-3.132l.004.004ZM76.57 27.438a29.01 29.01 0 0 0-.891-4.188c-1.616-5.608-4.881-10.706-7.934-15.754.95-1.85 1.908-3.7 2.828-5.574 0 0 1.079-1.98 0-1.92l-.866.45c-.87 1.817-1.879 3.612-2.94 5.407-1.063-1.795-2.07-3.59-2.945-5.407l-.862-.45c-1.075-.06 0 1.92 0 1.92.916 1.875 1.874 3.724 2.828 5.578-3.053 5.048-6.314 10.142-7.934 15.75a29.6 29.6 0 0 0-.891 4.188c-.504 2.906-.471 5.77-.05 8.576.424 2.806 1.236 5.554 2.294 8.23 1.237 3.6 4.57 6.94 4.153 10.698 0 3.724-2.707 7.24-3.724 11.027.271-.31.55-.61.85-.898.845-.822 1.7-1.361 2.553-1.616 1.116-.338 2.066-.104 2.844.706.696.722 1.167 1.829 1.416 3.324.113.693.225 2.463.338 5.31.125 3.066.279 5.333.462 6.798.283 2.38.716 3.875 1.308 4.489.408.422.816.438 1.22.046.858-.831 1.295-2.714 1.312-5.65-.004-.893-.125-3.018-.354-6.384-.258-3.674-.304-7.724-.133-12.138-.708-1.657-1.275-3.315-1.275-5.01-.416-3.758 2.916-7.098 4.153-10.698 1.058-2.676 1.87-5.424 2.294-8.23.425-2.805.459-5.67-.05-8.576l-.004-.004Zm-18.75 1.996c-.183-2.35.267-4.727 1.017-6.956a27.874 27.874 0 0 1 3.123-6.305c-.974 2.133-1.945 4.255-2.686 6.455-.754 2.196-1.27 4.468-1.454 6.806Zm7.222 1.503a7.351 7.351 0 0 0-.17 2.948 3.575 3.575 0 0 1-.425-1.495 4.838 4.838 0 0 1 .15-1.566c.137-.51.341-.998.624-1.44.28-.443.625-.844 1.041-1.149-.558.865-.974 1.758-1.22 2.706v-.004Zm8.255-1.603c-.021 3.348-.167 8.497-.9 10.02-.695 1.391-4.098.485-4.098.485-.562-.651-.558-1.303-.475-1.7 1.579-.559 2.749-2.684 2.749-5.223 0-2.968-1.603-5.374-3.582-5.374-1.978 0-3.585 2.405-3.585 5.374 0 2.247.92 4.172 2.228 4.973.116.313.304 1.132-.404 1.95 0 0-3.403.906-4.094-.484-.737-1.524-.88-6.673-.904-10.021-.008-1.4 0-3.12 0-3.12 1.279-6.037 3.815-11.453 6.534-16.797 2.716 5.344 5.252 10.76 6.53 16.798 0 0 .013 1.72 0 3.119Zm2.594-.26c-.187-2.342-.703-4.609-1.453-6.805-.741-2.2-1.712-4.322-2.686-6.455a28.053 28.053 0 0 1 3.123 6.305c.754 2.23 1.2 4.605 1.016 6.956Zm-9.47 62.733c-1.283-.264-2.611.07-3.978 1.002-.145.1-.279.208-.42.313.325 1.712.658 3.424.987 5.14.146-.159.275-.284.391-.364a2.087 2.087 0 0 1 1.691-.33c.608.134 1.1.48 1.479 1.036.9 1.328.995 2.923.287 4.781-.52 1.395-1.283 2.514-2.282 3.361.162.948.316 1.9.462 2.852 1.429-.969 2.753-1.132 3.977-.493.484-.609.896-1.273 1.246-1.979.4-2.793.816-5.599 1.224-8.413-.25-1.62-.804-3.065-1.666-4.339-.983-1.453-2.115-2.313-3.402-2.572l.004.004Zm7.85-23.137c.009-1.524-.391-2.985-.94-4.421 0 .35.003.705.007 1.077.038 4.075.313 7.123.825 9.148.054-1.073.1-2.146.13-3.215.028-1.386 0-2.117 0-2.117l-.017-.467-.005-.005Zm-1.945-4c0-.93.005-1.833.021-2.718-.241-.53-.483-1.06-.716-1.587-.096 2.593-.12 4.719-.07 6.364.066 2.359.249 5.846.553 10.46.112 1.724.07 3.156-.125 4.3-.229 1.332-.645 2.284-1.241 2.864-.654.635-1.324.593-2.007-.112-.808-.84-1.337-2.393-1.587-4.668-.217-1.888-.38-4.126-.483-6.71-.038-1.165-.154-2.902-.35-5.211-.192-1.437-.57-2.451-1.141-3.04-.63-.651-1.391-.873-2.295-.664-.762.167-1.47.564-2.112 1.19-.462.447-.887.927-1.274 1.432a9.575 9.575 0 0 0-.233 2.1l-.017.468s-.025.73.004 2.117c.108 4.259.567 8.485 1.195 12.693.08.009.155.017.234.021.77.025 1.486-.284 2.153-.927.82-.793 1.387-1.933 1.7-3.42.253-1.177.316-2.434.19-3.761-.15-1.633-.57-2.806-1.261-3.529-.438-.455-.92-.676-1.445-.676-.525.004-1.004.213-1.433.63-.287.28-.5.618-.629 1.01-.133.397-.225.619-.283.673-.15-.138-.088-.46.187-.956.221-.405.433-.706.63-.894.466-.45.99-.68 1.578-.684.583 0 1.107.238 1.574.722 1.208 1.252 1.74 3.094 1.603 5.52-.141 2.35-.904 4.196-2.286 5.536-.692.673-1.466.986-2.324.948-.05 0-.1-.008-.15-.016.433 2.872.945 5.74 1.487 8.61.12-.088.241-.18.366-.268 1.57-1.069 3.111-1.545 4.627-1.432 1.691.142 3.09 1.031 4.198 2.668.325.484.604.985.842 1.507.874-6.213 1.649-12.434 2.053-18.589-.687-1.064-1.166-2.726-1.429-5.01-.195-1.641-.291-3.967-.287-6.965l-.017.004Z" fill="url('#paint0_linear_1_13606')"/><path d="M57.898 43.593h-.046a2.353 2.353 0 0 1-1.741-.79c-.37-.417-.337-.934-.142-1.502-1.495 1.582-3.323 2.196-5.468 1.82-.82-.142-1.233-.384-1.3-.751a.593.593 0 0 1 .126-.468c-1.508.589-3.132.689-4.807-.125-.803-.389-1.162-.756-1.124-1.153a.61.61 0 0 1 .225-.405c-2.19.267-3.994-.33-5.444-1.774-.47-.468-.974-1.132-.72-1.629.162-.313.55-.421 1.154-.317.041.008.083.012.125.02-2.591-.613-4.848-2.32-7.047-5.678-.204-.309-.121-.614.05-.78.204-.201.529-.21.787-.026 1.37.973 2.553 1.691 3.619 2.2-2.411-1.364-4.39-3.607-6.106-6.838-.154-.293-.1-.618.138-.79.229-.167.546-.13.766.096 2.649 2.714 4.736 3.95 6.772 4.568-4.398-1.891-6.576-4.802-8.838-10.977-.133-.359.034-.664.263-.78.254-.13.554-.034.725.229 2.415 3.7 4.21 5.908 6.85 7.524-3.431-2.647-5.684-6.067-7.654-11.332-.117-.313-.021-.63.237-.768.25-.138.554-.05.737.2 4.444 6.05 7.543 9.883 14.96 12.284l.338.109c7.97 2.58 10.657 3.449 14.347 10.23 1.125 2.066 2.399 4.409.167 6.743a2.708 2.708 0 0 1-1.95.856v.004Zm.345-7.382-.462 2.342c-.13.647-.441 1.282-.745 1.892-.4.81-.784 1.574-.459 1.941.325.364.78.568 1.287.576.567.013 1.12-.23 1.533-.663 1.916-2.005.808-4.042-.267-6.013-3.569-6.564-5.984-7.345-13.99-9.933l-.34-.109c-7.456-2.413-10.633-6.209-15.019-12.167 2.55 6.651 5.598 10.221 11.15 13.102l-.246.577c-5.431-1.871-7.788-4.284-11.062-9.232 2.67 7.115 5.302 9.595 11.936 11.386l-.108.614c-3.449-.284-6.435-.844-10.708-5.128 2.924 5.353 6.468 7.708 11.795 7.863l.03.622c-3.062.367-5.736-.046-10.255-3.228 4.107 6.147 8.463 6.301 15.027 4.451l.216.585c-3.577 1.662-5.697 1.996-9.062 1.42-.396-.067-.5 0-.504 0 0 .029.07.338.616.88 2.566 2.569 6.447 2.138 11.862-1.31l.374.5c-1.865 1.633-3.844 2.66-6.41 3.332-.27.072-.378.138-.416.172.038.062.192.242.763.517 3.681 1.783 7.234-1.423 9.587-3.991l.491.38c-1.14 1.77-2.69 3.219-4.73 4.426a1.189 1.189 0 0 0-.305.23c.067.05.258.154.77.246 2.824.492 4.977-.865 6.585-4.147l1.05-2.142.016.009Z" fill="url('#paint1_linear_1_13606')"/><path d="M73.595 42.742c-2.228-2.334-.958-4.677.167-6.744 3.685-6.785 6.372-7.653 14.347-10.23l.338-.108c7.413-2.401 10.516-6.23 14.959-12.284.188-.255.488-.338.738-.2.258.137.354.454.237.768-1.97 5.265-4.223 8.684-7.655 11.332 2.64-1.616 4.431-3.825 6.851-7.524.171-.264.471-.36.725-.23.229.117.391.422.262.78-2.261 6.176-4.439 9.087-8.837 10.978 2.036-.618 4.123-1.854 6.772-4.568.22-.225.537-.267.766-.096.237.175.291.497.137.79-1.716 3.23-3.694 5.473-6.105 6.839 1.07-.514 2.253-1.228 3.619-2.2.258-.185.583-.172.787.024.171.163.25.472.05.78-2.195 3.358-4.452 5.061-7.047 5.68.042-.009.084-.013.125-.021.604-.105.991.004 1.154.317.254.493-.254 1.157-.72 1.628-1.45 1.45-3.253 2.042-5.444 1.775a.61.61 0 0 1 .225.405c.037.397-.317.76-1.125 1.152-1.674.81-3.298.714-4.806.126a.61.61 0 0 1 .125.467c-.066.372-.479.61-1.3.752-2.14.376-3.972-.238-5.468-1.82.196.567.23 1.085-.141 1.502a2.353 2.353 0 0 1-1.741.79h-.046c-.72 0-1.428-.31-1.949-.856v-.004Zm2.657-4.38c1.608 3.286 3.76 4.638 6.585 4.146.512-.092.703-.197.77-.247-.033-.041-.117-.12-.304-.23-2.04-1.206-3.59-2.655-4.731-4.425l.491-.38c2.353 2.568 5.906 5.774 9.588 3.992.57-.276.724-.456.762-.518-.038-.034-.146-.1-.417-.171-2.565-.673-4.543-1.7-6.41-3.332l.376-.502c5.414 3.45 9.295 3.875 11.86 1.312.546-.547.617-.852.617-.881 0 0-.104-.071-.504 0-3.365.576-5.485.242-9.062-1.42l.216-.585c6.568 1.854 10.924 1.696 15.027-4.45-4.519 3.181-7.189 3.594-10.254 3.227l.03-.622c5.326-.155 8.87-2.51 11.794-7.863-4.273 4.285-7.263 4.844-10.708 5.128l-.108-.614c6.634-1.795 9.267-4.271 11.936-11.386-3.273 4.948-5.63 7.361-11.061 9.232l-.246-.577c5.552-2.88 8.6-6.45 11.149-13.102-4.385 5.958-7.563 9.754-15.018 12.167l-.342.109c-8.004 2.588-10.42 3.37-13.99 9.933-1.07 1.97-2.177 4.009-.266 6.013.413.43.967.672 1.533.664a1.736 1.736 0 0 0 1.287-.577c.325-.363-.054-1.131-.458-1.941-.304-.614-.617-1.245-.746-1.892l-.462-2.342 1.05 2.142.016-.008Z" fill="url('#paint2_linear_1_13606')"/><path d="M80.255 46.332c2.607-.555 4.327-.918 6.868-1.966a34.69 34.69 0 0 0 4.19-1.825c3.669-1.582 7.517-4.242 11.236-6.81 7.447-5.148 15.143-10.468 22.298-7.913.762.685 1.016 1.462.696 2.138-.334.702-1.325 1.299-2.578 1.078l-.146.822c1.466.259 2.928-.388 3.473-1.54.492-1.04.134-2.23-.962-3.178l-.058-.05-.071-.025c-7.58-2.764-15.484 2.701-23.127 7.983-3.686 2.547-7.496 5.182-11.116 6.743a33.666 33.666 0 0 1-4.135 1.8c-2.486 1.027-4.182 1.386-6.743 1.93l.17.818.005-.005Z" fill="url('#paint3_linear_1_13606')"/><path d="M119.221 35.098c1.657 0 3.607-1.194 3.911-2.506.112-.492.137-1.703-2.091-2.342l-.229.802c.637.183 1.682.605 1.507 1.352-.216.948-2.094 2.071-3.49 1.825l-.145.823c.175.029.354.046.533.046h.004Z" fill="url('#paint4_linear_1_13606')"/><path d="M108.508 31.746c4.107-2.184 12.262-.697 12.341-.685l.154-.823c-.346-.062-8.521-1.549-12.882.765l.392.739-.005.004Z" fill="url('#paint5_linear_1_13606')"/><path d="M115.531 37.934c1.658 0 3.607-1.195 3.911-2.506.113-.492.138-1.703-2.091-2.342l-.229.802c.638.183 1.683.605 1.508 1.352-.217.948-2.095 2.072-3.49 1.825l-.146.823c.175.029.354.046.533.046h.004Z" fill="url('#paint6_linear_1_13606')"/><path d="M104.46 34.406c4.106-2.18 12.611-.53 12.694-.513l.162-.819c-.362-.07-8.883-1.724-13.248.597l.392.74v-.005Z" fill="url('#paint7_linear_1_13606')"/><path d="M111.607 40.42c1.607 0 3.498-1.156 3.79-2.43.108-.476.133-1.65-2.029-2.271l-.224.776c.616.18 1.628.585 1.461 1.312-.212.918-2.032 2.008-3.381 1.77l-.142.797c.167.03.342.042.521.042l.004.004Z" fill="url('#paint8_linear_1_13606')"/><path d="M101.187 36.655c3.965-2.108 11.899-.171 11.978-.15l.196-.785c-.337-.084-8.309-2.03-12.549.221l.379.714h-.004Z" fill="url('#paint9_linear_1_13606')"/><path d="M107.73 42.748c1.607 0 3.498-1.156 3.79-2.43.108-.476.133-1.653-2.028-2.271l-.225.777c.616.179 1.628.584 1.461 1.31-.212.92-2.028 2.009-3.381 1.771l-.142.797c.167.03.342.042.521.042l.004.004Z" fill="url('#paint10_linear_1_13606')"/><path d="M97.156 39.334c3.978-2.113 12.07-.513 12.149-.5l.158-.794c-.341-.071-8.454-1.67-12.686.576l.38.714v.004Z" fill="url('#paint11_linear_1_13606')"/><path d="M103.774 44.345c1.474 0 3.178-.856 3.486-1.883.137-.464.116-1.336-1.608-1.954l-.241.68c.499.18 1.312.556 1.157 1.07-.229.763-2.119 1.611-3.386 1.302l-.17.701c.241.059.495.088.758.088l.004-.004Z" fill="url('#paint12_linear_1_13606')"/><path d="m105.439 41.192.187-.697c-.3-.083-7.422-1.975-11.312-.221l.296.66c3.661-1.65 10.758.238 10.829.258Z" fill="url('#paint13_linear_1_13606')"/><path d="M99.567 45.69c1.545 0 3.64-.827 3.956-1.892.117-.392.092-1.127-1.391-1.657l-.233.647c.329.117 1.079.434.966.814-.221.735-2.586 1.658-3.894 1.336l-.162.668c.225.054.483.08.753.08l.005.004Z" fill="url('#paint14_linear_1_13606')"/><path d="m101.929 42.8.179-.663c-.288-.08-7.084-1.883-10.8-.209l.284.627c3.49-1.575 10.27.23 10.337.246Z" fill="url('#paint15_linear_1_13606')"/><path d="M96.793 46.355c1.112 0 2.37-.38 2.695-1.04.15-.309.237-.922-.891-1.557l-.333.601c.354.196.695.472.608.651-.25.514-2.133.898-3.074.497l-.27.635c.337.146.786.213 1.265.213Z" fill="url('#paint16_linear_1_13606')"/><path d="m98.288 44.37.283-.626c-.213-.096-5.244-2.372-8.346-1.55l.175.664c2.865-.76 7.834 1.487 7.883 1.512h.005Z" fill="url('#paint17_linear_1_13606')"/><path d="M88.268 43.193c-.32 1.027 1.358 2.43 3.257 3.319 1 .468 2.007.777 2.836.868.18.021.337.03.487.03.875 0 1.229-.326 1.366-.622.163-.347.167-.94-.737-1.804-.604-.58-1.487-1.157-2.486-1.625-1.254-.588-2.616-.956-3.565-.88a2.328 2.328 0 0 1-1.158.714Zm.737.217c.046-.1.275-.176.658-.176.63 0 1.67.2 3.007.827.925.434 1.737.96 2.278 1.482.5.48.617.819.57.915-.045.1-.374.225-1.065.15-.75-.083-1.67-.367-2.595-.802-2.149-1.006-2.97-2.137-2.849-2.396h-.004Z" fill="url('#paint18_linear_1_13606')"/><path d="M85.745 44.186c-.092.304-.034.768.495 1.444.438.556 1.104 1.144 1.883 1.654 1.008.66 2.186 1.173 3.02 1.173.407 0 .732-.121.92-.41.187-.283.266-.8-.4-1.653-.438-.555-1.104-1.144-1.883-1.653-.779-.51-1.582-.89-2.265-1.065-.117-.029-.221-.05-.321-.067a2.041 2.041 0 0 1-.146.084 13.2 13.2 0 0 1-1.3.493h-.003Zm.74.212s.088-.054.272-.054c.129 0 .312.021.562.084.604.154 1.328.497 2.037.964.712.464 1.311.99 1.699 1.483.383.488.379.726.362.751-.104.159-1.254.067-2.87-.994-.712-.463-1.311-.99-1.699-1.482-.383-.488-.379-.726-.362-.752Z" fill="url('#paint19_linear_1_13606')"/><path d="M83.003 45.21c-.117.768.916 1.833 2.05 2.576.857.56 1.857.994 2.577.994.363 0 .654-.109.82-.368.5-.772-.653-2.03-1.94-2.873-.662-.434-1.345-.755-1.928-.906-.017-.004-.03-.004-.046-.008-.513.2-1.02.4-1.537.58l.004.005Zm.762.117a.296.296 0 0 1 .134-.021c.316 0 1.124.188 2.19.889 1.291.843 1.745 1.637 1.712 1.812-.13.075-1.033-.02-2.324-.868-1.291-.844-1.745-1.637-1.712-1.813Z" fill="url('#paint20_linear_1_13606')"/><path d="M81.576 46.765c.167.472.491.998.912 1.486.629.731 1.47 1.353 2.124 1.353.2 0 .383-.058.537-.192.175-.154.43-.526.15-1.32-.166-.471-.491-.997-.912-1.486-.42-.488-.895-.885-1.337-1.119-.15-.079-.283-.13-.408-.167-.08.025-.158.055-.237.075-.254.076-.496.1-.72.088-.172.171-.371.547-.11 1.282Zm.662-.743s.017-.004.033-.004c.18 0 .825.271 1.533 1.094.762.88.908 1.599.837 1.72-.116.042-.8-.209-1.562-1.09-.762-.881-.907-1.6-.837-1.72h-.004Z" fill="url('#paint21_linear_1_13606')"/><path d="M110.262 30.551c-2.503.443-4.86.017-7.284-.651-2.94-.81-5.856-1.65-8.838-2.284-2.823-.601-5.768-1.278-8.67-1.14-3.062.146-7.077.885-8.434 4.033-.134.31-.58.042-.45-.263 1.907-4.43 8.508-4.651 12.527-4.083 3.311.467 6.606 1.21 9.838 2.062 3.656.965 7.334 2.502 11.174 1.825.329-.058.466.447.137.505v-.004Z" fill="url('#paint22_linear_1_13606')"/><path d="M106.172 33.238c-4.889-.614-9.275-2.405-13.952-3.816-2.299-.693-4.702-1.22-7.113-1.115-2.412.105-6.018.697-7.68 2.618-.22.255-.587-.117-.367-.367 2.566-2.96 8.21-3.099 11.745-2.501 5.951 1.006 11.324 3.904 17.367 4.664.329.041.333.563 0 .522v-.005Z" fill="url('#paint23_linear_1_13606')"/><path d="M103.078 35.393c-4.127-.856-7.8-2.81-11.799-4.075-4.24-1.34-10.645-2.468-14.072 1.19-.23.246-.596-.125-.367-.367 2.853-3.044 7.859-2.869 11.628-2.105 5.119 1.036 9.642 3.791 14.752 4.856.329.067.187.572-.138.505l-.004-.004Z" fill="url('#paint24_linear_1_13606')"/><path d="M100.067 37.06c-7.938-1.127-15.501-9.7-23.035-2.626-.246.23-.612-.138-.367-.367 2.94-2.76 6.347-3.62 10.254-2.573 4.619 1.245 8.48 4.38 13.286 5.061.329.046.191.551-.138.505Z" fill="url('#paint25_linear_1_13606')"/><path d="M97.243 38.926c-6.218-1.725-14.264-8.948-20.37-3.228-.245.23-.612-.138-.366-.367 6.314-5.917 14.498 1.327 20.874 3.093.32.088.187.593-.138.506v-.004Z" fill="url('#paint26_linear_1_13606')"/><path d="M94.994 40.64c-2.678-.785-5.09-2.1-7.563-3.361-1.47-.748-2.986-1.537-4.594-1.938-2.711-.676-4.481.322-6.488 2.013-.255.213-.625-.155-.367-.368 2.678-2.255 5.023-2.973 8.392-1.687 3.69 1.407 6.947 3.72 10.762 4.84.32.096.183.597-.138.505l-.004-.004Z" fill="url('#paint27_linear_1_13606')"/><path d="m92.208 41.836-7.313-3.482c-1.329-.63-2.67-1.387-4.14-1.595-2.057-.293-3.548.6-4.96 2.012-.238.238-.608-.133-.367-.367 2.053-2.046 4.298-2.76 7.06-1.716 3.41 1.294 6.688 3.127 9.982 4.697.304.142.038.593-.262.45Z" fill="url('#paint28_linear_1_13606')"/><path d="M88.901 42.868c-3.336-1.858-9.82-7.04-13.181-2.906-.213.259-.58-.113-.367-.367 3.623-4.456 10.337.889 13.815 2.826.291.163.029.614-.263.451l-.004-.004Z" fill="url('#paint29_linear_1_13606')"/><path d="M86.576 43.825a59.483 59.483 0 0 0-4.797-2.894c-.98-.526-1.962-1.152-3.116-1.165-1.649-.017-3.015 1.173-4.19 2.146-.254.213-.624-.154-.366-.367 1.579-1.315 3.42-2.74 5.602-2.15 2.511.676 4.993 2.563 7.13 3.979.279.183.016.639-.263.45Z" fill="url('#paint30_linear_1_13606')"/><path d="M84.582 44.729c-1.187-.827-2.428-1.52-3.715-2.175-2.04-1.036-3.432-1.395-5.635-.56-.312.121-.45-.384-.138-.505 1.604-.61 2.94-.802 4.548-.121 1.812.768 3.595 1.783 5.206 2.906.275.192.013.643-.262.45l-.004.005Z" fill="url('#paint31_linear_1_13606')"/><path d="M83.004 45.568c-1.941-1.315-5.348-3.783-7.764-2.622-.3.146-.566-.305-.262-.45 2.682-1.291 6.147 1.168 8.288 2.621.275.188.017.64-.263.451Z" fill="url('#paint32_linear_1_13606')"/><path d="M80.684 46.044c-.071-.234-1.304-.488-1.537-.588a7.93 7.93 0 0 1-1.295-.706c-.77-.518-1.425-1.17-2.045-1.854-.225-.246.141-.618.366-.367.77.851 1.595 1.632 2.616 2.18.608.325 1.228.475 1.861.717.308.117.438.163.538.48.1.318-.404.46-.504.138Z" fill="url('#paint33_linear_1_13606')"/><path d="M54.02 46.325c-2.606-.556-4.326-.92-6.867-1.967a34.689 34.689 0 0 1-4.19-1.825c-3.669-1.582-7.517-4.242-11.236-6.81-7.447-5.148-15.143-10.468-22.298-7.912-.762.684-1.016 1.461-.696 2.137.333.702 1.325 1.299 2.578 1.078l.146.822c-1.466.26-2.928-.388-3.473-1.54-.492-1.04-.134-2.23.962-3.178l.058-.05.07-.025c7.58-2.764 15.485 2.701 23.128 7.983 3.686 2.547 7.496 5.182 11.116 6.744 1.445.739 2.79 1.323 4.135 1.8 2.486 1.026 4.181 1.386 6.743 1.928l-.17.819-.005-.005Z" fill="url('#paint34_linear_1_13606')"/><path d="M15.056 35.098c-1.658 0-3.607-1.194-3.91-2.506-.113-.492-.138-1.703 2.09-2.342l.229.802c-.637.183-1.683.605-1.508 1.352.217.948 2.095 2.071 3.49 1.825l.146.823c-.175.029-.354.046-.533.046h-.004Z" fill="url('#paint35_linear_1_13606')"/><path d="M25.772 31.738c-4.107-2.184-12.261-.697-12.34-.685l-.155-.822c.346-.063 8.522-1.55 12.882.764l-.392.739.005.004Z" fill="url('#paint36_linear_1_13606')"/><path d="M18.745 37.926c-1.657 0-3.606-1.194-3.91-2.506-.113-.492-.138-1.703 2.09-2.342l.23.802c-.638.183-1.683.605-1.508 1.353.216.948 2.095 2.07 3.49 1.824l.146.823c-.175.03-.354.046-.533.046h-.005Z" fill="url('#paint37_linear_1_13606')"/><path d="M29.82 34.398c-4.107-2.18-12.611-.53-12.695-.513l-.162-.819c.362-.07 8.883-1.724 13.248.598l-.391.739v-.005Z" fill="url('#paint38_linear_1_13606')"/><path d="M22.668 40.413c-1.607 0-3.498-1.157-3.79-2.43-.108-.477-.133-1.65 2.028-2.272l.225.777c-.616.18-1.628.584-1.462 1.31.213.92 2.033 2.009 3.382 1.771l.142.797c-.167.03-.342.042-.52.042l-.005.005Z" fill="url('#paint39_linear_1_13606')"/><path d="M33.093 36.647c-3.964-2.108-11.898-.17-11.977-.15l-.196-.785c.337-.083 8.309-2.03 12.548.221l-.379.714h.005Z" fill="url('#paint40_linear_1_13606')"/><path d="M26.547 42.748c-1.608 0-3.498-1.156-3.79-2.43-.108-.476-.133-1.653 2.028-2.271l.225.777c-.616.179-1.628.584-1.462 1.31.213.92 2.029 2.009 3.382 1.771l.142.797c-.167.03-.342.042-.52.042l-.005.004Z" fill="url('#paint41_linear_1_13606')"/><path d="M37.125 39.334c-3.977-2.113-12.07-.513-12.148-.5l-.159-.794c.342-.071 8.455-1.67 12.686.576l-.379.714v.004Z" fill="url('#paint42_linear_1_13606')"/><path d="M30.502 44.337c-1.474 0-3.178-.856-3.486-1.883-.137-.463-.116-1.336 1.608-1.954l.241.68c-.5.18-1.312.556-1.157 1.07.229.764 2.12 1.611 3.386 1.302l.17.702a3.22 3.22 0 0 1-.758.087l-.004-.004Z" fill="url('#paint43_linear_1_13606')"/><path d="m28.838 41.185-.188-.698c.3-.083 7.422-1.975 11.312-.221l-.296.66c-3.66-1.65-10.757.238-10.828.259Z" fill="url('#paint44_linear_1_13606')"/><path d="M34.714 45.682c-1.545 0-3.64-.827-3.957-1.892-.116-.392-.091-1.127 1.391-1.657l.234.647c-.33.117-1.079.434-.967.814.221.735 2.587 1.658 3.895 1.336l.162.668c-.225.055-.483.08-.754.08l-.004.004Z" fill="url('#paint45_linear_1_13606')"/><path d="m32.347 42.793-.179-.664c.287-.08 7.084-1.883 10.8-.209l-.284.627c-3.49-1.574-10.27.23-10.337.246Z" fill="url('#paint46_linear_1_13606')"/><path d="M37.483 46.355c-1.112 0-2.37-.38-2.695-1.04-.15-.309-.237-.922.892-1.557l.333.601c-.354.196-.696.472-.608.651.25.514 2.132.898 3.073.497l.27.635c-.336.146-.786.213-1.265.213Z" fill="url('#paint47_linear_1_13606')"/><path d="m35.988 44.37-.283-.626c.212-.096 5.244-2.372 8.346-1.55l-.175.664c-2.865-.76-7.834 1.487-7.884 1.512h-.004Z" fill="url('#paint48_linear_1_13606')"/><path d="M44.85 42.47c-.95-.075-2.312.297-3.565.882-1 .467-1.883 1.043-2.487 1.624-.9.864-.895 1.457-.737 1.804.138.296.492.622 1.366.622.146 0 .308-.009.487-.03.83-.091 1.837-.4 2.837-.868 1.899-.89 3.577-2.292 3.256-3.32a2.271 2.271 0 0 1-1.157-.713Zm-2.424 3.328c-.925.435-1.85.719-2.595.802-.691.075-1.02-.05-1.066-.15-.046-.1.066-.434.57-.915.546-.522 1.354-1.048 2.279-1.482 1.332-.626 2.378-.827 3.007-.827.383 0 .612.075.658.176.12.259-.7 1.39-2.85 2.396h-.003Z" fill="url('#paint49_linear_1_13606')"/><path d="M47.236 43.693a1.998 1.998 0 0 1-.145-.084 3.69 3.69 0 0 0-.321.067c-.683.175-1.487.555-2.266 1.065-.779.51-1.45 1.098-1.882 1.653-.667.852-.587 1.37-.4 1.654.187.284.512.41.92.41.837 0 2.012-.514 3.02-1.174.779-.51 1.45-1.098 1.882-1.654.53-.676.588-1.14.496-1.444a14.8 14.8 0 0 1-1.3-.493h-.004Zm.196 1.461c-.383.493-.987 1.02-1.7 1.483-1.615 1.056-2.764 1.152-2.869.993-.016-.025-.02-.263.363-.751.383-.493.987-1.02 1.699-1.482.712-.464 1.433-.806 2.037-.965.25-.063.433-.084.562-.084.183 0 .258.042.27.055.017.025.025.263-.362.751Z" fill="url('#paint50_linear_1_13606')"/><path d="M49.74 44.617s-.029.004-.045.009c-.583.15-1.266.471-1.928.906-1.287.843-2.445 2.1-1.941 2.872.166.26.458.368.82.368.72 0 1.724-.434 2.578-.994 1.133-.743 2.166-1.808 2.05-2.576-.517-.18-1.025-.38-1.538-.58l.005-.005Zm-.937 2.51c-1.29.843-2.198.943-2.323.868-.038-.171.42-.964 1.711-1.812 1.07-.702 1.874-.89 2.19-.89.068 0 .113.009.134.022.038.17-.42.964-1.712 1.812Z" fill="url('#paint51_linear_1_13606')"/><path d="M52.593 45.475a2.114 2.114 0 0 1-.72-.087c-.08-.021-.158-.055-.237-.075a2.222 2.222 0 0 0-.409.166c-.441.234-.916.631-1.336 1.12-.421.488-.746 1.014-.913 1.486-.283.793-.029 1.17.15 1.32a.795.795 0 0 0 .538.191c.654 0 1.495-.622 2.124-1.352.42-.489.745-1.015.912-1.487.262-.735.062-1.106-.108-1.282Zm-1.386 2.26c-.763.88-1.45 1.13-1.562 1.089-.071-.121.075-.84.837-1.72.708-.823 1.354-1.094 1.533-1.094a.08.08 0 0 1 .033.004c.07.121-.075.84-.837 1.72h-.004Z" fill="url('#paint52_linear_1_13606')"/><path d="M24.019 30.551c2.503.443 4.86.017 7.284-.651 2.94-.81 5.855-1.65 8.837-2.284 2.824-.601 5.769-1.278 8.671-1.14 3.062.146 7.076.885 8.434 4.033.133.31.579.042.45-.263-1.908-4.43-8.509-4.651-12.528-4.083-3.31.467-6.605 1.21-9.837 2.062-3.657.965-7.334 2.502-11.174 1.825-.329-.058-.466.447-.137.505v-.004Z" fill="url('#paint53_linear_1_13606')"/><path d="M28.104 33.238c4.89-.614 9.275-2.405 13.952-3.816 2.299-.693 4.702-1.22 7.113-1.115 2.412.105 6.018.697 7.68 2.618.22.255.587-.117.367-.367-2.566-2.96-8.21-3.099-11.745-2.501-5.952 1.006-11.324 3.904-17.367 4.664-.33.041-.333.563 0 .522v-.005Z" fill="url('#paint54_linear_1_13606')"/><path d="M31.198 35.393c4.127-.856 7.8-2.81 11.799-4.075 4.24-1.34 10.645-2.468 14.073 1.19.229.246.595-.125.366-.367-2.853-3.044-7.859-2.869-11.628-2.105-5.118 1.036-9.641 3.791-14.752 4.856-.329.067-.187.572.138.505l.004-.004Z" fill="url('#paint55_linear_1_13606')"/><path d="M34.209 37.052c7.938-1.127 15.501-9.7 23.035-2.626.246.23.612-.138.367-.367-2.94-2.76-6.347-3.62-10.254-2.572-4.619 1.244-8.48 4.38-13.286 5.06-.329.046-.191.551.138.505Z" fill="url('#paint56_linear_1_13606')"/><path d="M37.034 38.918c6.218-1.725 14.264-8.948 20.37-3.228.246.23.612-.138.366-.367-6.313-5.917-14.497 1.328-20.873 3.094-.321.087-.188.593.137.505v-.004Z" fill="url('#paint57_linear_1_13606')"/><path d="M39.281 40.632c2.678-.785 5.09-2.1 7.563-3.361 1.47-.748 2.986-1.537 4.594-1.938 2.711-.676 4.481.322 6.489 2.013.254.213.624-.155.366-.368-2.678-2.254-5.022-2.973-8.392-1.687-3.69 1.408-6.947 3.72-10.761 4.84-.321.096-.184.597.137.505l.004-.004Z" fill="url('#paint58_linear_1_13606')"/><path d="m42.069 41.836 7.313-3.482c1.328-.63 2.67-1.387 4.14-1.595 2.057-.293 3.548.6 4.96 2.012.237.238.608-.133.366-.367-2.053-2.046-4.298-2.76-7.059-1.716-3.41 1.294-6.689 3.127-9.983 4.697-.304.142-.037.593.263.45Z" fill="url('#paint59_linear_1_13606')"/><path d="M45.38 42.868c3.336-1.858 9.82-7.04 13.181-2.906.213.259.58-.113.367-.367-3.623-4.456-10.337.889-13.815 2.826-.291.163-.029.614.263.451l.004-.004Z" fill="url('#paint60_linear_1_13606')"/><path d="M47.704 43.817a59.437 59.437 0 0 1 4.798-2.894c.978-.526 1.961-1.152 3.115-1.165 1.65-.016 3.015 1.174 4.19 2.146.254.213.624-.154.366-.367-1.578-1.315-3.42-2.739-5.602-2.15-2.51.676-4.993 2.563-7.13 3.979-.279.184-.016.639.263.45Z" fill="url('#paint61_linear_1_13606')"/><path d="M49.694 44.729c1.186-.827 2.428-1.52 3.715-2.175 2.04-1.036 3.431-1.395 5.635-.56.312.121.45-.384.137-.505-1.603-.61-2.94-.802-4.548-.121-1.812.768-3.594 1.783-5.206 2.906-.275.192-.013.643.262.45l.005.005Z" fill="url('#paint62_linear_1_13606')"/><path d="M51.843 45.764c1.94-1.316 5.347-3.783 7.763-2.623.3.147.566-.304.262-.45-2.682-1.29-6.147 1.169-8.288 2.622-.275.188-.017.639.263.45Z" fill="url('#paint63_linear_1_13606')"/><path d="M54.163 46.247c.071-.233 1.304-.488 1.537-.588.454-.197.887-.43 1.295-.706.771-.518 1.425-1.17 2.045-1.854.225-.246-.141-.618-.366-.367-.77.852-1.595 1.632-2.616 2.18-.608.325-1.228.475-1.861.717-.308.117-.438.163-.538.48-.1.318.404.46.505.138Z" fill="url('#paint64_linear_1_13606')"/><path d="M5.098 74.333h.062c.27 0 .42-.468.42-.756v-6.284L1.33 73.452v.125c0 .276.166.756.42.756h.063v.138H0v-.138h.062c.271 0 .421-.468.421-.756v-7.311c0-.259-.154-.714-.42-.714H0v-.138h1.82v.138h-.104c-.242.042-.383.467-.383.714v6.338l4.252-6.159v-.18c0-.258-.154-.713-.42-.713h-.063v-.138h1.82v.138h-.063c-.254 0-.42.45-.42.714v7.311c0 .259.166.756.42.756h.063v.138h-1.82v-.138h-.004Z" fill="url('#paint65_linear_1_13606')"/><path d="M13.24 74.333h.062c.254 0 .408-.468.408-.756v-3.733H9.612v3.733c0 .276.142.756.396.756h.062v.138H8.28v-.138h.062c.254 0 .408-.468.408-.756v-7.311c0-.259-.142-.714-.408-.714h-.063v-.138h1.791v.138h-.062c-.271 0-.396.45-.396.714v3.098h4.098v-3.098c0-.259-.141-.714-.408-.714h-.063v-.138h1.791v.138h-.062c-.27 0-.396.45-.396.714v7.311c0 .276.167.756.396.756h.062v.138h-1.79v-.138Z" fill="url('#paint66_linear_1_13606')"/><path d="M16.888 69.832c0 2.168 1.678 4.28 3.815 4.28.629 0 1.766-.221 2.137-1.465h.129v1.524c-.259 0-.525.083-.87.18-.45.125-.988.258-1.588.258-2.982 0-4.493-2.4-4.493-4.651 0-2.25 1.499-4.677 4.635-4.677.562 0 1.012.138 1.37.247.258.096.462.137.666.137v1.524h-.129c-.204-1.152-1.178-1.41-1.957-1.41-2.524 0-3.715 2.137-3.715 4.058v-.005Z" fill="url('#paint67_linear_1_13606')"/><path d="M27.234 74.336v.138h-1.82v-.138h.063c.27 0 .42-.48.42-.755v-7.654h-1.486c-.55 0-.821.564-.821.99h-.13v-1.495h5.752v1.495h-.129c0-.426-.27-.99-.82-.99H26.75v7.654c0 .275.154.755.408.755h.075Z" fill="url('#paint68_linear_1_13606')"/><path d="M35.018 74.333h.063c.27 0 .42-.468.42-.756v-6.284l-4.252 6.159v.125c0 .276.167.756.42.756h.063v.138h-1.82v-.138h.063c.27 0 .42-.468.42-.756v-7.311c0-.259-.154-.714-.42-.714h-.063v-.138h1.82v.138h-.104c-.242.042-.383.467-.383.714v6.338l4.252-6.159v-.18c0-.258-.154-.713-.42-.713h-.063v-.138h1.82v.138h-.063c-.254 0-.42.45-.42.714v7.311c0 .259.166.756.42.756h.063v.138h-1.82v-.138h.004Z" fill="url('#paint69_linear_1_13606')"/><path d="M41.355 74.336v.138h-1.82v-.138h.063c.27 0 .42-.48.42-.755v-7.654h-1.486c-.55 0-.82.564-.82.99h-.13v-1.495h5.752v1.495h-.13c0-.426-.27-.99-.82-.99h-1.512v7.654c0 .275.154.755.408.755h.075Z" fill="url('#paint70_linear_1_13606')"/><path d="M43.555 65.414h1.778v.138h-.075c-.192 0-.242.15-.242.275 0 .097.026.163.038.205l2.19 5.132 1.958-4.978c.013-.041.063-.179.063-.288a.338.338 0 0 0-.321-.342v-.138h1.37v.138c-.308 0-.45.221-.537.397l-3.074 7.875c-.204.534-.562.768-.962.768-.5.012-.858-.426-.845-.426l.32-.756c.142.343.371.547.617.547.154 0 .333-.108.45-.371l.5-1.303-2.666-6.297c-.117-.275-.308-.426-.562-.438v-.138Z" fill="url('#paint71_linear_1_13606')"/><path d="M54.312 74.336v.138h-1.82v-.138h.063c.27 0 .42-.48.42-.755v-7.654H51.49c-.55 0-.82.564-.82.99h-.13v-1.495h5.752v1.495h-.13c0-.426-.27-.99-.82-.99h-1.512v7.654c0 .275.154.755.408.755h.075Z" fill="url('#paint72_linear_1_13606')"/><path d="M77.353 65.669h.116c.142 0 .308-.054.5-.121.32-.109.754-.259 1.383-.259 1.599 0 2.523 1.015 2.523 2.209 0 .864-.474 1.536-1.295 1.987 1.166.547 1.678 1.44 1.678 2.426 0 1.44-1.14 2.702-3.11 2.702-.717 0-1.13-.15-1.446-.3-.204-.097-.37-.151-.562-.151h-.117v-1.524h.13c.308 1.027 1.099 1.482 1.92 1.482 1.074 0 2.153-.78 2.153-2.03 0-1.248-.946-2.346-2.241-2.346h-.462v-.467h.525c1.024 0 1.907-.643 1.907-1.729s-.895-1.77-1.766-1.77c-.704 0-1.433.438-1.703 1.41h-.13v-1.523l-.003.004Z" fill="url('#paint73_linear_1_13606')"/><path d="M91.259 73.996v1.716h-.13c-.037-.493-.437-1.236-1.011-1.236h-5.902c-.562 0-.987.78-1.024 1.236h-.13v-1.716h.563c.27 0 .462-.163.575-.506l2.944-8.271 2.97 8.23c.116.275.333.547.603.547h.542Zm-6.772 0h4.93l-2.469-6.819-2.457 6.819h-.004Z" fill="url('#paint74_linear_1_13606')"/><path d="M100.912 69.924c0 2.743-2.024 4.693-4.48 4.693-2.625 0-4.24-2.209-4.24-4.568 0-2.36 1.611-4.76 4.418-4.76 2.649 0 4.302 2.167 4.302 4.635Zm-.87.163c0-2.017-1.42-4.322-3.598-4.322s-3.395 2.221-3.395 4.088c0 2.017 1.512 4.28 3.549 4.28 2.29-.109 3.444-2.222 3.444-4.046Z" fill="url('#paint75_linear_1_13606')"/><path d="M102.024 65.422h1.82c1.895 0 2.894.81 2.894 2.234 0 1.536-1.512 2.43-2.894 2.43h-.488v3.499c0 .275.155.756.409.756h.062v.137h-1.807v-.137h.062c.254 0 .396-.48.396-.756v-7.311c0-.26-.142-.673-.396-.714h-.062v-.138h.004Zm1.332.48v3.704h.384c1.382 0 2.136-.877 2.136-1.758 0-1.044-.604-1.95-2.345-1.95h-.179l.004.004Z" fill="url('#paint76_linear_1_13606')"/><path d="M116.444 69.924c0 2.743-2.024 4.693-4.482 4.693-2.623 0-4.239-2.209-4.239-4.568 0-2.36 1.611-4.76 4.418-4.76 2.649 0 4.303 2.167 4.303 4.635Zm-.871.163c0-2.017-1.42-4.322-3.598-4.322s-3.394 2.221-3.394 4.088c0 2.017 1.511 4.28 3.548 4.28 2.291-.109 3.444-2.222 3.444-4.046Z" fill="url('#paint77_linear_1_13606')"/><path d="M117.568 74.34h.063c.258 0 .408-.48.408-.755v-7.299c0-.259-.154-.726-.437-.726h-.063v-.138h2.099c1.587 0 2.536.81 2.536 2.058 0 1.057-.766 1.687-1.32 1.975 1.433.288 1.883 1.47 1.883 2.443 0 1.891-1.408 2.58-2.882 2.58h-2.291v-.137h.004Zm3.778-6.734c-.05-1.057-.729-1.729-1.808-1.729h-.641v3.457h.666c1.42 0 1.778-.906 1.778-1.632v-.096h.005Zm.524 4.376c-.141-1.412-.883-2.21-2.253-2.21h-.716v4.251h.741c1.383 0 2.228-.701 2.228-1.891v-.15Z" fill="url('#paint78_linear_1_13606')"/><path d="M123.826 74.34h.063c.241 0 .408-.45.408-.713v-7.312c0-.275-.154-.755-.408-.755h-.063v-.138h1.804v.138h-.088c-.242.041-.383.492-.383.755v2.948h.716c1.587 0 3.149.643 3.149 2.622 0 1.604-1.291 2.593-2.97 2.593h-2.228v-.137Zm1.524-.342c1.987 0 2.778-.78 2.778-2.058 0-1.278-.87-2.21-2.548-2.21h-.421v4.268h.191Z" fill="url('#paint79_linear_1_13606')"/><path d="M134.209 74.34h.063c.254 0 .421-.48.421-.755v-3.716c-.754.067-1.321.96-1.808 1.962-.191.372-.421.781-.641 1.207-.408.81-1.087 1.44-1.958 1.44h-.679v-.137c.783 0 1.408-.81 1.716-1.4l1.012-1.95c.242-.438.463-.876 1.037-1.139-1.432-.109-2.278-1.027-2.278-2.1 0-1.374 1.191-2.33 3.074-2.33h1.845v.138h-.063c-.258 0-.395.45-.395.714v7.31c0 .276.141.757.395.757h.063v.137h-1.808v-.137h.004Zm-.32-4.952h.808V65.89h-.192c-1.653 0-2.599.618-2.599 1.658s.871 1.837 1.987 1.837l-.004.004Z" fill="url('#paint80_linear_1_13606')"/><path d="M18.305 78.805H.363v.292h17.942v-.292Z" fill="url('#paint81_linear_1_13606')"/><path d="M137 78.805h-17.941v.292H137v-.292Z" fill="url('#paint82_linear_1_13606')"/><path d="M30.982 82.364v-.059h.029c.054 0 .1-.033.133-.108a.497.497 0 0 0 .05-.213V78.94l-1.49 3.486-1.417-3.307v2.865a.46.46 0 0 0 .054.213c.038.07.083.108.138.108h.029v.059h-.63v-.059h.03c.054 0 .096-.033.13-.108a.497.497 0 0 0 .05-.213v-3.086a.446.446 0 0 0-.05-.2c-.034-.067-.076-.1-.13-.1h-.03v-.059h.588l1.341 3.165 1.341-3.165h.654v.058h-.029c-.054 0-.1.034-.137.1a.403.403 0 0 0-.055.201v3.086a.46.46 0 0 0 .055.213c.037.07.083.108.137.108h.03v.059h-.821Z" fill="url('#paint83_linear_1_13606')"/><path d="M36.488 82.362h-.583v-.296l-.03.03c-.204.204-.466.304-.787.304-.254 0-.445-.054-.57-.167a.55.55 0 0 1-.192-.434c0-.25.125-.451.38-.593.253-.142.649-.284 1.199-.418a.745.745 0 0 0-.15-.446.637.637 0 0 0-.28-.218.989.989 0 0 0-.29-.045.685.685 0 0 0-.45.146.767.767 0 0 0-.242.363h-.05v-.451c.033 0 .087-.02.158-.063.07-.041.167-.079.287-.12.121-.042.255-.063.4-.063.204 0 .375.025.513.079.137.05.241.125.303.221a.868.868 0 0 1 .138.297c.025.1.037.221.037.355v1.148c0 .083.021.159.063.221.042.063.092.096.154.096v.059l-.008-.005Zm-.646-.48.063-.07v-.827l-.059.012c-.766.188-1.15.443-1.15.76 0 .125.05.225.15.309.1.08.23.121.392.121.221 0 .42-.1.6-.3l.004-.005Z" fill="url('#paint84_linear_1_13606')"/><path d="M40.273 79.895c.388 0 .692.12.904.367.212.247.32.539.32.881 0 .343-.103.635-.307.885-.209.251-.496.376-.87.376-.23 0-.467-.112-.705-.334v1.194c0 .071.017.138.05.213.034.071.08.109.133.109v.058h-.75v-.058c.055 0 .1-.038.134-.109a.498.498 0 0 0 .05-.213v-2.99c0-.062 0-.108-.004-.137 0-.03-.02-.058-.05-.092-.03-.033-.07-.05-.13-.054v-.059h.567v.255a.819.819 0 0 1 .658-.296v.004Zm.05 2.317a.71.71 0 0 0 .587-.3c.138-.193.205-.422.205-.685 0-.293-.08-.556-.238-.79-.158-.233-.362-.346-.616-.346a.642.642 0 0 0-.454.184.609.609 0 0 0-.192.467v.76c0 .2.071.372.221.506.15.133.308.204.491.204h-.004Z" fill="url('#paint85_linear_1_13606')"/><path d="M46.354 80.293v1.695c0 .067.017.134.054.209.038.075.08.108.13.108v.059H45.8v-.059c.054 0 .096-.033.13-.108a.496.496 0 0 0 .05-.213v-1.39l-1.375 1.348v.042c0 .071.017.138.05.213.033.07.075.108.125.108v.059h-.733v-.059c.054 0 .096-.033.129-.108a.498.498 0 0 0 .05-.213v-1.695a.446.446 0 0 0-.05-.2c-.033-.067-.075-.1-.13-.1v-.06h.734v.06c-.054 0-.096.032-.125.1a.502.502 0 0 0-.046.2v1.382l1.374-1.349v-.033a.446.446 0 0 0-.05-.2c-.033-.067-.075-.1-.129-.1v-.06h.738v.06c-.063 0-.109.032-.138.1a.505.505 0 0 0-.046.204h-.004Z" fill="url('#paint86_linear_1_13606')"/><path d="M51.426 80.293v1.695c0 .067.017.134.055.209.037.075.079.108.129.108v.059h-.737v-.059c.054 0 .095-.033.129-.108a.498.498 0 0 0 .05-.213v-1.39l-1.375 1.348v.042c0 .071.017.138.05.213.034.07.075.108.125.108v.059h-.733v-.059c.054 0 .096-.033.13-.108a.496.496 0 0 0 .05-.213v-1.695a.445.445 0 0 0-.05-.2c-.034-.067-.076-.1-.13-.1v-.06h.733v.06c-.054 0-.096.032-.125.1a.5.5 0 0 0-.046.2v1.382l1.375-1.349v-.033a.446.446 0 0 0-.05-.2c-.034-.067-.075-.1-.13-.1v-.06h.738v.06c-.063 0-.108.032-.138.1a.504.504 0 0 0-.045.204h-.005Z" fill="url('#paint87_linear_1_13606')"/><path d="M77.702 82.36v-.058h.03c.053 0 .1-.034.132-.109a.498.498 0 0 0 .05-.213V78.9a.43.43 0 0 0-.054-.205c-.037-.07-.083-.104-.141-.104h-.03v-.059h.946c.354 0 .633.08.837.234a.753.753 0 0 1 .304.635c0 .2-.058.371-.18.51a1.36 1.36 0 0 1-.416.325c.296.054.513.18.646.376s.204.413.204.655c0 .372-.125.643-.37.823-.25.175-.559.267-.93.267h-1.032l.004.004Zm1.703-2.86v-.042a.759.759 0 0 0-.233-.534c-.146-.13-.337-.197-.579-.197h-.287v1.462h.3c.287 0 .495-.067.616-.205a.69.69 0 0 0 .183-.484Zm.238 1.87v-.062c-.067-.622-.404-.931-1.017-.931h-.324v1.795h.333c.312 0 .558-.07.737-.213a.711.711 0 0 0 .27-.588Z" fill="url('#paint88_linear_1_13606')"/><path d="M83.762 82.404c-.38 0-.683-.117-.912-.35a1.22 1.22 0 0 1-.346-.89c0-.359.12-.68.366-.918.246-.239.554-.355.93-.355.374 0 .67.112.907.342.238.23.354.518.354.873s-.117.66-.346.914c-.229.255-.545.384-.945.384h-.008Zm-.034-2.321a.805.805 0 0 0-.62.321c-.154.2-.23.43-.23.698 0 .296.088.555.263.776.175.221.4.334.679.334a.732.732 0 0 0 .637-.317c.154-.209.233-.451.233-.722 0-.284-.083-.54-.254-.76-.17-.222-.408-.334-.712-.334l.004.004Z" fill="url('#paint89_linear_1_13606')"/><path d="M89.321 82.364v-.059c.03 0 .063-.012.096-.037a.117.117 0 0 0 .05-.096.332.332 0 0 0-.042-.134l-.733-1.737-.762 1.825c-.066.159-.196.238-.387.238h-.125v-.059c.054 0 .112-.029.175-.083a.614.614 0 0 0 .154-.2l.787-1.842c.021-.058.03-.1.03-.12 0-.047-.03-.072-.092-.072v-.058h.466l.891 2.083a.71.71 0 0 0 .125.197c.055.062.1.091.142.091v.059h-.766l-.009.004Z" fill="url('#paint90_linear_1_13606')"/><path d="m93.923 81.391.283.522c.05.092.13.18.23.267.103.084.2.125.282.125v.059h-.22a.683.683 0 0 1-.638-.372l-.27-.513a.545.545 0 0 0-.221-.213.611.611 0 0 0-.312-.088v.823c0 .07.016.137.046.204.029.067.074.1.133.1v.059h-.746v-.059c.054 0 .1-.033.134-.1a.463.463 0 0 0 .05-.204v-1.704a.51.51 0 0 0-.046-.209c-.03-.066-.075-.1-.138-.1v-.058h.742v.058c-.05 0-.092.034-.125.105a.477.477 0 0 0-.05.204v.597l.983-.852s0-.008.004-.012v-.013s0-.029-.025-.029v-.058h.504v.058c-.03 0-.08.021-.15.059a.49.49 0 0 0-.092.058l-1.041.898c.312 0 .537.13.675.388h.008Z" fill="url('#paint91_linear_1_13606')"/><path d="M98.297 82.404c-.38 0-.683-.117-.912-.35a1.22 1.22 0 0 1-.346-.89c0-.359.12-.68.367-.918.245-.239.553-.355.928-.355s.67.112.908.342c.238.23.354.518.354.873s-.116.66-.345.914c-.23.255-.546.384-.946.384h-.008Zm-.034-2.321a.804.804 0 0 0-.62.321c-.154.2-.23.43-.23.698 0 .296.088.555.263.776.175.221.4.334.68.334.278 0 .482-.104.636-.317.154-.209.234-.451.234-.722 0-.284-.084-.54-.254-.76-.171-.222-.409-.334-.713-.334l.004.004Z" fill="url('#paint92_linear_1_13606')"/><path d="M104.081 80.506a.495.495 0 0 1-.133.335.805.805 0 0 1-.308.22.84.84 0 0 1 .42.201.548.548 0 0 1 .183.439.472.472 0 0 1-.041.192 1.007 1.007 0 0 1-.129.213.594.594 0 0 1-.267.18 1.169 1.169 0 0 1-.421.07h-1.27v-.058c.054 0 .1-.034.138-.109a.455.455 0 0 0 .054-.213v-1.69a.454.454 0 0 0-.05-.206c-.033-.066-.079-.1-.138-.1v-.058h1.179c.254 0 .45.058.579.18.133.12.2.254.2.4l.004.004Zm-1.391-.392v.873h.446c.204 0 .354-.042.449-.13a.417.417 0 0 0 .146-.321c0-.1-.054-.197-.166-.288a.654.654 0 0 0-.429-.138h-.446v.004Zm0 2.063h.566a.887.887 0 0 0 .179-.017c.063-.013.13-.034.205-.063a.361.361 0 0 0 .179-.146.44.44 0 0 0 .07-.25.41.41 0 0 0-.091-.268.532.532 0 0 0-.238-.163 1.352 1.352 0 0 0-.479-.092h-.387v.999h-.004Z" fill="url('#paint93_linear_1_13606')"/><path d="M107.984 82.404c-.379 0-.683-.117-.912-.35a1.22 1.22 0 0 1-.345-.89c0-.359.12-.68.366-.918.246-.239.554-.355.929-.355s.67.112.908.342c.237.23.354.518.354.873s-.117.66-.346.914c-.229.255-.546.384-.945.384h-.009Zm-.033-2.321a.807.807 0 0 0-.621.321c-.154.2-.229.43-.229.698 0 .296.088.555.263.776.175.221.4.334.679.334a.731.731 0 0 0 .637-.317c.154-.209.233-.451.233-.722a1.21 1.21 0 0 0-.254-.76c-.171-.222-.408-.334-.712-.334l.004.004Z" fill="url('#paint94_linear_1_13606')"/><path d="M114.132 80.288v1.696c0 .066.016.133.054.208.037.076.079.109.129.109v.058h-.737v-.058c.054 0 .095-.034.129-.109a.502.502 0 0 0 .05-.213v-1.39l-1.375 1.349v.041c0 .071.017.138.05.213.034.071.075.109.125.109v.058h-.733v-.058c.054 0 .096-.034.129-.109a.488.488 0 0 0 .05-.213v-1.695a.437.437 0 0 0-.05-.2c-.033-.067-.075-.1-.129-.1v-.059h.733v.059c-.054 0-.096.033-.125.1a.504.504 0 0 0-.046.2v1.382l1.375-1.348v-.034a.45.45 0 0 0-.05-.2c-.033-.067-.075-.1-.129-.1v-.059h.737v.059c-.063 0-.108.033-.138.1a.506.506 0 0 0-.045.204h-.004Zm-.479-1.14h.033c0 .138-.063.276-.188.406a.615.615 0 0 1-.458.196.613.613 0 0 1-.449-.192c-.13-.13-.196-.268-.196-.41h.033c0 .026.017.059.038.097.02.037.054.075.095.12a.455.455 0 0 0 .188.113c.083.03.179.046.287.046.329 0 .533-.125.617-.376Z" fill="url('#paint95_linear_1_13606')"/></g><defs><linearGradient id="paint0_linear_1_13606" x1="66.77" y1="100.329" x2="66.77" y2="17.2" gradientUnits="userSpaceOnUse"><stop stop-color="#6D512D"/><stop offset=".08" stop-color="#9E875F"/><stop offset=".17" stop-color="#E5D6A8"/><stop offset=".28" stop-color="#E5D6A8"/><stop offset=".44" stop-color="#6B5938"/><stop offset=".6" stop-color="#9E875F"/><stop offset=".88" stop-color="#D0C185"/></linearGradient><linearGradient id="paint1_linear_1_13606" x1="44.953" y1="100.325" x2="44.953" y2="17.196" gradientUnits="userSpaceOnUse"><stop stop-color="#6D512D"/><stop offset=".08" stop-color="#9E875F"/><stop offset=".17" stop-color="#E5D6A8"/><stop offset=".28" stop-color="#E5D6A8"/><stop offset=".44" stop-color="#6B5938"/><stop offset=".6" stop-color="#9E875F"/><stop offset=".88" stop-color="#D0C185"/></linearGradient><linearGradient id="paint2_linear_1_13606" x1="88.488" y1="100.325" x2="88.488" y2="17.196" gradientUnits="userSpaceOnUse"><stop stop-color="#6D512D"/><stop offset=".08" stop-color="#9E875F"/><stop offset=".17" stop-color="#E5D6A8"/><stop offset=".28" stop-color="#E5D6A8"/><stop offset=".44" stop-color="#6B5938"/><stop offset=".6" stop-color="#9E875F"/><stop offset=".88" stop-color="#D0C185"/></linearGradient><linearGradient id="paint3_linear_1_13606" x1="103.299" y1="100.325" x2="103.299" y2="17.196" gradientUnits="userSpaceOnUse"><stop stop-color="#6D512D"/><stop offset=".08" stop-color="#9E875F"/><stop offset=".17" stop-color="#E5D6A8"/><stop offset=".28" stop-color="#E5D6A8"/><stop offset=".44" stop-color="#6B5938"/><stop offset=".6" stop-color="#9E875F"/><stop offset=".88" stop-color="#D0C185"/></linearGradient><linearGradient id="paint4_linear_1_13606" x1="118.688" y1="32.676" x2="123.169" y2="32.676" gradientUnits="userSpaceOnUse"><stop stop-color="#6D512D"/><stop offset=".08" stop-color="#9E875F"/><stop offset=".17" stop-color="#E5D6A8"/><stop offset=".28" stop-color="#E5D6A8"/><stop offset=".44" stop-color="#6B5938"/><stop offset=".6" stop-color="#9E875F"/><stop offset=".88" stop-color="#D0C185"/></linearGradient><linearGradient id="paint5_linear_1_13606" x1="114.56" y1="100.327" x2="114.56" y2="17.199" gradientUnits="userSpaceOnUse"><stop stop-color="#6D512D"/><stop offset=".08" stop-color="#9E875F"/><stop offset=".17" stop-color="#E5D6A8"/><stop offset=".28" stop-color="#E5D6A8"/><stop offset=".44" stop-color="#6B5938"/><stop offset=".6" stop-color="#9E875F"/><stop offset=".88" stop-color="#D0C185"/></linearGradient><linearGradient id="paint6_linear_1_13606" x1="117.239" y1="100.327" x2="117.239" y2="17.198" gradientUnits="userSpaceOnUse"><stop stop-color="#6D512D"/><stop offset=".08" stop-color="#9E875F"/><stop offset=".17" stop-color="#E5D6A8"/><stop offset=".28" stop-color="#E5D6A8"/><stop offset=".44" stop-color="#6B5938"/><stop offset=".6" stop-color="#9E875F"/><stop offset=".88" stop-color="#D0C185"/></linearGradient><linearGradient id="paint7_linear_1_13606" x1="110.695" y1="100.324" x2="110.695" y2="17.195" gradientUnits="userSpaceOnUse"><stop stop-color="#6D512D"/><stop offset=".08" stop-color="#9E875F"/><stop offset=".17" stop-color="#E5D6A8"/><stop offset=".28" stop-color="#E5D6A8"/><stop offset=".44" stop-color="#6B5938"/><stop offset=".6" stop-color="#9E875F"/><stop offset=".88" stop-color="#D0C185"/></linearGradient><linearGradient id="paint8_linear_1_13606" x1="113.264" y1="100.329" x2="113.264" y2="17.201" gradientUnits="userSpaceOnUse"><stop stop-color="#6D512D"/><stop offset=".08" stop-color="#9E875F"/><stop offset=".17" stop-color="#E5D6A8"/><stop offset=".28" stop-color="#E5D6A8"/><stop offset=".44" stop-color="#6B5938"/><stop offset=".6" stop-color="#9E875F"/><stop offset=".88" stop-color="#D0C185"/></linearGradient><linearGradient id="paint9_linear_1_13606" x1="107.085" y1="100.331" x2="107.085" y2="17.202" gradientUnits="userSpaceOnUse"><stop stop-color="#6D512D"/><stop offset=".08" stop-color="#9E875F"/><stop offset=".17" stop-color="#E5D6A8"/><stop offset=".28" stop-color="#E5D6A8"/><stop offset=".44" stop-color="#6B5938"/><stop offset=".6" stop-color="#9E875F"/><stop offset=".88" stop-color="#D0C185"/></linearGradient><linearGradient id="paint10_linear_1_13606" x1="109.387" y1="100.323" x2="109.387" y2="17.195" gradientUnits="userSpaceOnUse"><stop stop-color="#6D512D"/><stop offset=".08" stop-color="#9E875F"/><stop offset=".17" stop-color="#E5D6A8"/><stop offset=".28" stop-color="#E5D6A8"/><stop offset=".44" stop-color="#6B5938"/><stop offset=".6" stop-color="#9E875F"/><stop offset=".88" stop-color="#D0C185"/></linearGradient><linearGradient id="paint11_linear_1_13606" x1="103.12" y1="100.325" x2="103.12" y2="17.196" gradientUnits="userSpaceOnUse"><stop stop-color="#6D512D"/><stop offset=".08" stop-color="#9E875F"/><stop offset=".17" stop-color="#E5D6A8"/><stop offset=".28" stop-color="#E5D6A8"/><stop offset=".44" stop-color="#6B5938"/><stop offset=".6" stop-color="#9E875F"/><stop offset=".88" stop-color="#D0C185"/></linearGradient><linearGradient id="paint12_linear_1_13606" x1="105.165" y1="100.329" x2="105.165" y2="17.201" gradientUnits="userSpaceOnUse"><stop stop-color="#6D512D"/><stop offset=".08" stop-color="#9E875F"/><stop offset=".17" stop-color="#E5D6A8"/><stop offset=".28" stop-color="#E5D6A8"/><stop offset=".44" stop-color="#6B5938"/><stop offset=".6" stop-color="#9E875F"/><stop offset=".88" stop-color="#D0C185"/></linearGradient><linearGradient id="paint13_linear_1_13606" x1="99.97" y1="100.325" x2="99.97" y2="17.196" gradientUnits="userSpaceOnUse"><stop stop-color="#6D512D"/><stop offset=".08" stop-color="#9E875F"/><stop offset=".17" stop-color="#E5D6A8"/><stop offset=".28" stop-color="#E5D6A8"/><stop offset=".44" stop-color="#6B5938"/><stop offset=".6" stop-color="#9E875F"/><stop offset=".88" stop-color="#D0C185"/></linearGradient><linearGradient id="paint14_linear_1_13606" x1="101.191" y1="100.329" x2="101.191" y2="17.201" gradientUnits="userSpaceOnUse"><stop stop-color="#6D512D"/><stop offset=".08" stop-color="#9E875F"/><stop offset=".17" stop-color="#E5D6A8"/><stop offset=".28" stop-color="#E5D6A8"/><stop offset=".44" stop-color="#6B5938"/><stop offset=".6" stop-color="#9E875F"/><stop offset=".88" stop-color="#D0C185"/></linearGradient><linearGradient id="paint15_linear_1_13606" x1="96.71" y1="100.33" x2="96.71" y2="17.201" gradientUnits="userSpaceOnUse"><stop stop-color="#6D512D"/><stop offset=".08" stop-color="#9E875F"/><stop offset=".17" stop-color="#E5D6A8"/><stop offset=".28" stop-color="#E5D6A8"/><stop offset=".44" stop-color="#6B5938"/><stop offset=".6" stop-color="#9E875F"/><stop offset=".88" stop-color="#D0C185"/></linearGradient><linearGradient id="paint16_linear_1_13606" x1="97.556" y1="100.327" x2="97.556" y2="17.198" gradientUnits="userSpaceOnUse"><stop stop-color="#6D512D"/><stop offset=".08" stop-color="#9E875F"/><stop offset=".17" stop-color="#E5D6A8"/><stop offset=".28" stop-color="#E5D6A8"/><stop offset=".44" stop-color="#6B5938"/><stop offset=".6" stop-color="#9E875F"/><stop offset=".88" stop-color="#D0C185"/></linearGradient><linearGradient id="paint17_linear_1_13606" x1="94.402" y1="100.325" x2="94.402" y2="17.196" gradientUnits="userSpaceOnUse"><stop stop-color="#6D512D"/><stop offset=".08" stop-color="#9E875F"/><stop offset=".17" stop-color="#E5D6A8"/><stop offset=".28" stop-color="#E5D6A8"/><stop offset=".44" stop-color="#6B5938"/><stop offset=".6" stop-color="#9E875F"/><stop offset=".88" stop-color="#D0C185"/></linearGradient><linearGradient id="paint18_linear_1_13606" x1="92.266" y1="100.329" x2="92.266" y2="17.2" gradientUnits="userSpaceOnUse"><stop stop-color="#6D512D"/><stop offset=".08" stop-color="#9E875F"/><stop offset=".17" stop-color="#E5D6A8"/><stop offset=".28" stop-color="#E5D6A8"/><stop offset=".44" stop-color="#6B5938"/><stop offset=".6" stop-color="#9E875F"/><stop offset=".88" stop-color="#D0C185"/></linearGradient><linearGradient id="paint19_linear_1_13606" x1="88.951" y1="100.324" x2="88.951" y2="17.196" gradientUnits="userSpaceOnUse"><stop stop-color="#6D512D"/><stop offset=".08" stop-color="#9E875F"/><stop offset=".17" stop-color="#E5D6A8"/><stop offset=".28" stop-color="#E5D6A8"/><stop offset=".44" stop-color="#6B5938"/><stop offset=".6" stop-color="#9E875F"/><stop offset=".88" stop-color="#D0C185"/></linearGradient><linearGradient id="paint20_linear_1_13606" x1="85.785" y1="100.329" x2="85.785" y2="17.201" gradientUnits="userSpaceOnUse"><stop stop-color="#6D512D"/><stop offset=".08" stop-color="#9E875F"/><stop offset=".17" stop-color="#E5D6A8"/><stop offset=".28" stop-color="#E5D6A8"/><stop offset=".44" stop-color="#6B5938"/><stop offset=".6" stop-color="#9E875F"/><stop offset=".88" stop-color="#D0C185"/></linearGradient><linearGradient id="paint21_linear_1_13606" x1="83.438" y1="100.327" x2="83.438" y2="17.199" gradientUnits="userSpaceOnUse"><stop stop-color="#6D512D"/><stop offset=".08" stop-color="#9E875F"/><stop offset=".17" stop-color="#E5D6A8"/><stop offset=".28" stop-color="#E5D6A8"/><stop offset=".44" stop-color="#6B5938"/><stop offset=".6" stop-color="#9E875F"/><stop offset=".88" stop-color="#D0C185"/></linearGradient><linearGradient id="paint22_linear_1_13606" x1="93.503" y1="100.327" x2="93.503" y2="17.198" gradientUnits="userSpaceOnUse"><stop stop-color="#6D512D"/><stop offset=".08" stop-color="#9E875F"/><stop offset=".17" stop-color="#E5D6A8"/><stop offset=".28" stop-color="#E5D6A8"/><stop offset=".44" stop-color="#6B5938"/><stop offset=".6" stop-color="#9E875F"/><stop offset=".88" stop-color="#D0C185"/></linearGradient><linearGradient id="paint23_linear_1_13606" x1="91.708" y1="100.325" x2="91.708" y2="17.196" gradientUnits="userSpaceOnUse"><stop stop-color="#6D512D"/><stop offset=".08" stop-color="#9E875F"/><stop offset=".17" stop-color="#E5D6A8"/><stop offset=".28" stop-color="#E5D6A8"/><stop offset=".44" stop-color="#6B5938"/><stop offset=".6" stop-color="#9E875F"/><stop offset=".88" stop-color="#D0C185"/></linearGradient><linearGradient id="paint24_linear_1_13606" x1="90.084" y1="100.325" x2="90.084" y2="17.197" gradientUnits="userSpaceOnUse"><stop stop-color="#6D512D"/><stop offset=".08" stop-color="#9E875F"/><stop offset=".17" stop-color="#E5D6A8"/><stop offset=".28" stop-color="#E5D6A8"/><stop offset=".44" stop-color="#6B5938"/><stop offset=".6" stop-color="#9E875F"/><stop offset=".88" stop-color="#D0C185"/></linearGradient><linearGradient id="paint25_linear_1_13606" x1="88.489" y1="100.331" x2="88.489" y2="17.202" gradientUnits="userSpaceOnUse"><stop stop-color="#6D512D"/><stop offset=".08" stop-color="#9E875F"/><stop offset=".17" stop-color="#E5D6A8"/><stop offset=".28" stop-color="#E5D6A8"/><stop offset=".44" stop-color="#6B5938"/><stop offset=".6" stop-color="#9E875F"/><stop offset=".88" stop-color="#D0C185"/></linearGradient><linearGradient id="paint26_linear_1_13606" x1="86.994" y1="100.33" x2="86.994" y2="17.201" gradientUnits="userSpaceOnUse"><stop stop-color="#6D512D"/><stop offset=".08" stop-color="#9E875F"/><stop offset=".17" stop-color="#E5D6A8"/><stop offset=".28" stop-color="#E5D6A8"/><stop offset=".44" stop-color="#6B5938"/><stop offset=".6" stop-color="#9E875F"/><stop offset=".88" stop-color="#D0C185"/></linearGradient><linearGradient id="paint27_linear_1_13606" x1="85.607" y1="100.328" x2="85.607" y2="17.199" gradientUnits="userSpaceOnUse"><stop stop-color="#6D512D"/><stop offset=".08" stop-color="#9E875F"/><stop offset=".17" stop-color="#E5D6A8"/><stop offset=".28" stop-color="#E5D6A8"/><stop offset=".44" stop-color="#6B5938"/><stop offset=".6" stop-color="#9E875F"/><stop offset=".88" stop-color="#D0C185"/></linearGradient><linearGradient id="paint28_linear_1_13606" x1="83.978" y1="100.325" x2="83.978" y2="17.197" gradientUnits="userSpaceOnUse"><stop stop-color="#6D512D"/><stop offset=".08" stop-color="#9E875F"/><stop offset=".17" stop-color="#E5D6A8"/><stop offset=".28" stop-color="#E5D6A8"/><stop offset=".44" stop-color="#6B5938"/><stop offset=".6" stop-color="#9E875F"/><stop offset=".88" stop-color="#D0C185"/></linearGradient><linearGradient id="paint29_linear_1_13606" x1="82.292" y1="100.326" x2="82.292" y2="17.198" gradientUnits="userSpaceOnUse"><stop stop-color="#6D512D"/><stop offset=".08" stop-color="#9E875F"/><stop offset=".17" stop-color="#E5D6A8"/><stop offset=".28" stop-color="#E5D6A8"/><stop offset=".44" stop-color="#6B5938"/><stop offset=".6" stop-color="#9E875F"/><stop offset=".88" stop-color="#D0C185"/></linearGradient><linearGradient id="paint30_linear_1_13606" x1="80.492" y1="100.327" x2="80.492" y2="17.198" gradientUnits="userSpaceOnUse"><stop stop-color="#6D512D"/><stop offset=".08" stop-color="#9E875F"/><stop offset=".17" stop-color="#E5D6A8"/><stop offset=".28" stop-color="#E5D6A8"/><stop offset=".44" stop-color="#6B5938"/><stop offset=".6" stop-color="#9E875F"/><stop offset=".88" stop-color="#D0C185"/></linearGradient><linearGradient id="paint31_linear_1_13606" x1="79.938" y1="100.325" x2="79.938" y2="17.196" gradientUnits="userSpaceOnUse"><stop stop-color="#6D512D"/><stop offset=".08" stop-color="#9E875F"/><stop offset=".17" stop-color="#E5D6A8"/><stop offset=".28" stop-color="#E5D6A8"/><stop offset=".44" stop-color="#6B5938"/><stop offset=".6" stop-color="#9E875F"/><stop offset=".88" stop-color="#D0C185"/></linearGradient><linearGradient id="paint32_linear_1_13606" x1="79.114" y1="100.329" x2="79.114" y2="17.2" gradientUnits="userSpaceOnUse"><stop stop-color="#6D512D"/><stop offset=".08" stop-color="#9E875F"/><stop offset=".17" stop-color="#E5D6A8"/><stop offset=".28" stop-color="#E5D6A8"/><stop offset=".44" stop-color="#6B5938"/><stop offset=".6" stop-color="#9E875F"/><stop offset=".88" stop-color="#D0C185"/></linearGradient><linearGradient id="paint33_linear_1_13606" x1="78.464" y1="100.329" x2="78.464" y2="17.2" gradientUnits="userSpaceOnUse"><stop stop-color="#6D512D"/><stop offset=".08" stop-color="#9E875F"/><stop offset=".17" stop-color="#E5D6A8"/><stop offset=".28" stop-color="#E5D6A8"/><stop offset=".44" stop-color="#6B5938"/><stop offset=".6" stop-color="#9E875F"/><stop offset=".88" stop-color="#D0C185"/></linearGradient><linearGradient id="paint34_linear_1_13606" x1="30.981" y1="100.325" x2="30.981" y2="17.197" gradientUnits="userSpaceOnUse"><stop stop-color="#6D512D"/><stop offset=".08" stop-color="#9E875F"/><stop offset=".17" stop-color="#E5D6A8"/><stop offset=".28" stop-color="#E5D6A8"/><stop offset=".44" stop-color="#6B5938"/><stop offset=".6" stop-color="#9E875F"/><stop offset=".88" stop-color="#D0C185"/></linearGradient><linearGradient id="paint35_linear_1_13606" x1="13.353" y1=".003" x2="13.353" y2="17.202" gradientUnits="userSpaceOnUse"><stop stop-color="#6D512D"/><stop offset=".08" stop-color="#9E875F"/><stop offset=".17" stop-color="#E5D6A8"/><stop offset=".28" stop-color="#E5D6A8"/><stop offset=".44" stop-color="#6B5938"/><stop offset=".6" stop-color="#9E875F"/><stop offset=".88" stop-color="#D0C185"/></linearGradient><linearGradient id="paint36_linear_1_13606" x1="19.72" y1="100.324" x2="19.72" y2="17.195" gradientUnits="userSpaceOnUse"><stop stop-color="#6D512D"/><stop offset=".08" stop-color="#9E875F"/><stop offset=".17" stop-color="#E5D6A8"/><stop offset=".28" stop-color="#E5D6A8"/><stop offset=".44" stop-color="#6B5938"/><stop offset=".6" stop-color="#9E875F"/><stop offset=".88" stop-color="#D0C185"/></linearGradient><linearGradient id="paint37_linear_1_13606" x1="17.038" y1="0" x2="17.038" y2="17.199" gradientUnits="userSpaceOnUse"><stop stop-color="#6D512D"/><stop offset=".08" stop-color="#9E875F"/><stop offset=".17" stop-color="#E5D6A8"/><stop offset=".28" stop-color="#E5D6A8"/><stop offset=".44" stop-color="#6B5938"/><stop offset=".6" stop-color="#9E875F"/><stop offset=".88" stop-color="#D0C185"/></linearGradient><linearGradient id="paint38_linear_1_13606" x1="23.585" y1="100.324" x2="23.585" y2="17.196" gradientUnits="userSpaceOnUse"><stop stop-color="#6D512D"/><stop offset=".08" stop-color="#9E875F"/><stop offset=".17" stop-color="#E5D6A8"/><stop offset=".28" stop-color="#E5D6A8"/><stop offset=".44" stop-color="#6B5938"/><stop offset=".6" stop-color="#9E875F"/><stop offset=".88" stop-color="#D0C185"/></linearGradient><linearGradient id="paint39_linear_1_13606" x1="21.015" y1="100.326" x2="21.015" y2="17.197" gradientUnits="userSpaceOnUse"><stop stop-color="#6D512D"/><stop offset=".08" stop-color="#9E875F"/><stop offset=".17" stop-color="#E5D6A8"/><stop offset=".28" stop-color="#E5D6A8"/><stop offset=".44" stop-color="#6B5938"/><stop offset=".6" stop-color="#9E875F"/><stop offset=".88" stop-color="#D0C185"/></linearGradient><linearGradient id="paint40_linear_1_13606" x1="27.196" y1="100.331" x2="27.196" y2="17.202" gradientUnits="userSpaceOnUse"><stop stop-color="#6D512D"/><stop offset=".08" stop-color="#9E875F"/><stop offset=".17" stop-color="#E5D6A8"/><stop offset=".28" stop-color="#E5D6A8"/><stop offset=".44" stop-color="#6B5938"/><stop offset=".6" stop-color="#9E875F"/><stop offset=".88" stop-color="#D0C185"/></linearGradient><linearGradient id="paint41_linear_1_13606" x1="24.894" y1="100.328" x2="24.894" y2="17.199" gradientUnits="userSpaceOnUse"><stop stop-color="#6D512D"/><stop offset=".08" stop-color="#9E875F"/><stop offset=".17" stop-color="#E5D6A8"/><stop offset=".28" stop-color="#E5D6A8"/><stop offset=".44" stop-color="#6B5938"/><stop offset=".6" stop-color="#9E875F"/><stop offset=".88" stop-color="#D0C185"/></linearGradient><linearGradient id="paint42_linear_1_13606" x1="31.157" y1="100.329" x2="31.157" y2="17.2" gradientUnits="userSpaceOnUse"><stop stop-color="#6D512D"/><stop offset=".08" stop-color="#9E875F"/><stop offset=".17" stop-color="#E5D6A8"/><stop offset=".28" stop-color="#E5D6A8"/><stop offset=".44" stop-color="#6B5938"/><stop offset=".6" stop-color="#9E875F"/><stop offset=".88" stop-color="#D0C185"/></linearGradient><linearGradient id="paint43_linear_1_13606" x1="29.115" y1="100.33" x2="29.115" y2="17.201" gradientUnits="userSpaceOnUse"><stop stop-color="#6D512D"/><stop offset=".08" stop-color="#9E875F"/><stop offset=".17" stop-color="#E5D6A8"/><stop offset=".28" stop-color="#E5D6A8"/><stop offset=".44" stop-color="#6B5938"/><stop offset=".6" stop-color="#9E875F"/><stop offset=".88" stop-color="#D0C185"/></linearGradient><linearGradient id="paint44_linear_1_13606" x1="34.306" y1="100.325" x2="34.306" y2="17.197" gradientUnits="userSpaceOnUse"><stop stop-color="#6D512D"/><stop offset=".08" stop-color="#9E875F"/><stop offset=".17" stop-color="#E5D6A8"/><stop offset=".28" stop-color="#E5D6A8"/><stop offset=".44" stop-color="#6B5938"/><stop offset=".6" stop-color="#9E875F"/><stop offset=".88" stop-color="#D0C185"/></linearGradient><linearGradient id="paint45_linear_1_13606" x1="33.09" y1="100.326" x2="33.09" y2="17.197" gradientUnits="userSpaceOnUse"><stop stop-color="#6D512D"/><stop offset=".08" stop-color="#9E875F"/><stop offset=".17" stop-color="#E5D6A8"/><stop offset=".28" stop-color="#E5D6A8"/><stop offset=".44" stop-color="#6B5938"/><stop offset=".6" stop-color="#9E875F"/><stop offset=".88" stop-color="#D0C185"/></linearGradient><linearGradient id="paint46_linear_1_13606" x1="37.57" y1="100.331" x2="37.57" y2="17.202" gradientUnits="userSpaceOnUse"><stop stop-color="#6D512D"/><stop offset=".08" stop-color="#9E875F"/><stop offset=".17" stop-color="#E5D6A8"/><stop offset=".28" stop-color="#E5D6A8"/><stop offset=".44" stop-color="#6B5938"/><stop offset=".6" stop-color="#9E875F"/><stop offset=".88" stop-color="#D0C185"/></linearGradient><linearGradient id="paint47_linear_1_13606" x1="36.725" y1="100.331" x2="36.725" y2="17.202" gradientUnits="userSpaceOnUse"><stop stop-color="#6D512D"/><stop offset=".08" stop-color="#9E875F"/><stop offset=".17" stop-color="#E5D6A8"/><stop offset=".28" stop-color="#E5D6A8"/><stop offset=".44" stop-color="#6B5938"/><stop offset=".6" stop-color="#9E875F"/><stop offset=".88" stop-color="#D0C185"/></linearGradient><linearGradient id="paint48_linear_1_13606" x1="39.878" y1="100.329" x2="39.878" y2="17.2" gradientUnits="userSpaceOnUse"><stop stop-color="#6D512D"/><stop offset=".08" stop-color="#9E875F"/><stop offset=".17" stop-color="#E5D6A8"/><stop offset=".28" stop-color="#E5D6A8"/><stop offset=".44" stop-color="#6B5938"/><stop offset=".6" stop-color="#9E875F"/><stop offset=".88" stop-color="#D0C185"/></linearGradient><linearGradient id="paint49_linear_1_13606" x1="42.013" y1="100.325" x2="42.013" y2="17.197" gradientUnits="userSpaceOnUse"><stop stop-color="#6D512D"/><stop offset=".08" stop-color="#9E875F"/><stop offset=".17" stop-color="#E5D6A8"/><stop offset=".28" stop-color="#E5D6A8"/><stop offset=".44" stop-color="#6B5938"/><stop offset=".6" stop-color="#9E875F"/><stop offset=".88" stop-color="#D0C185"/></linearGradient><linearGradient id="paint50_linear_1_13606" x1="45.329" y1="100.328" x2="45.329" y2="17.2" gradientUnits="userSpaceOnUse"><stop stop-color="#6D512D"/><stop offset=".08" stop-color="#9E875F"/><stop offset=".17" stop-color="#E5D6A8"/><stop offset=".28" stop-color="#E5D6A8"/><stop offset=".44" stop-color="#6B5938"/><stop offset=".6" stop-color="#9E875F"/><stop offset=".88" stop-color="#D0C185"/></linearGradient><linearGradient id="paint51_linear_1_13606" x1="48.495" y1="100.326" x2="48.495" y2="17.197" gradientUnits="userSpaceOnUse"><stop stop-color="#6D512D"/><stop offset=".08" stop-color="#9E875F"/><stop offset=".17" stop-color="#E5D6A8"/><stop offset=".28" stop-color="#E5D6A8"/><stop offset=".44" stop-color="#6B5938"/><stop offset=".6" stop-color="#9E875F"/><stop offset=".88" stop-color="#D0C185"/></linearGradient><linearGradient id="paint52_linear_1_13606" x1="50.844" y1="100.324" x2="50.844" y2="17.195" gradientUnits="userSpaceOnUse"><stop stop-color="#6D512D"/><stop offset=".08" stop-color="#9E875F"/><stop offset=".17" stop-color="#E5D6A8"/><stop offset=".28" stop-color="#E5D6A8"/><stop offset=".44" stop-color="#6B5938"/><stop offset=".6" stop-color="#9E875F"/><stop offset=".88" stop-color="#D0C185"/></linearGradient><linearGradient id="paint53_linear_1_13606" x1="40.773" y1="100.331" x2="40.773" y2="17.202" gradientUnits="userSpaceOnUse"><stop stop-color="#6D512D"/><stop offset=".08" stop-color="#9E875F"/><stop offset=".17" stop-color="#E5D6A8"/><stop offset=".28" stop-color="#E5D6A8"/><stop offset=".44" stop-color="#6B5938"/><stop offset=".6" stop-color="#9E875F"/><stop offset=".88" stop-color="#D0C185"/></linearGradient><linearGradient id="paint54_linear_1_13606" x1="42.572" y1="100.329" x2="42.572" y2="17.201" gradientUnits="userSpaceOnUse"><stop stop-color="#6D512D"/><stop offset=".08" stop-color="#9E875F"/><stop offset=".17" stop-color="#E5D6A8"/><stop offset=".28" stop-color="#E5D6A8"/><stop offset=".44" stop-color="#6B5938"/><stop offset=".6" stop-color="#9E875F"/><stop offset=".88" stop-color="#D0C185"/></linearGradient><linearGradient id="paint55_linear_1_13606" x1="44.192" y1="100.329" x2="44.192" y2="17.201" gradientUnits="userSpaceOnUse"><stop stop-color="#6D512D"/><stop offset=".08" stop-color="#9E875F"/><stop offset=".17" stop-color="#E5D6A8"/><stop offset=".28" stop-color="#E5D6A8"/><stop offset=".44" stop-color="#6B5938"/><stop offset=".6" stop-color="#9E875F"/><stop offset=".88" stop-color="#D0C185"/></linearGradient><linearGradient id="paint56_linear_1_13606" x1="45.787" y1="100.331" x2="45.787" y2="17.202" gradientUnits="userSpaceOnUse"><stop stop-color="#6D512D"/><stop offset=".08" stop-color="#9E875F"/><stop offset=".17" stop-color="#E5D6A8"/><stop offset=".28" stop-color="#E5D6A8"/><stop offset=".44" stop-color="#6B5938"/><stop offset=".6" stop-color="#9E875F"/><stop offset=".88" stop-color="#D0C185"/></linearGradient><linearGradient id="paint57_linear_1_13606" x1="47.283" y1="100.326" x2="47.283" y2="17.197" gradientUnits="userSpaceOnUse"><stop stop-color="#6D512D"/><stop offset=".08" stop-color="#9E875F"/><stop offset=".17" stop-color="#E5D6A8"/><stop offset=".28" stop-color="#E5D6A8"/><stop offset=".44" stop-color="#6B5938"/><stop offset=".6" stop-color="#9E875F"/><stop offset=".88" stop-color="#D0C185"/></linearGradient><linearGradient id="paint58_linear_1_13606" x1="48.673" y1="100.328" x2="48.673" y2="17.199" gradientUnits="userSpaceOnUse"><stop stop-color="#6D512D"/><stop offset=".08" stop-color="#9E875F"/><stop offset=".17" stop-color="#E5D6A8"/><stop offset=".28" stop-color="#E5D6A8"/><stop offset=".44" stop-color="#6B5938"/><stop offset=".6" stop-color="#9E875F"/><stop offset=".88" stop-color="#D0C185"/></linearGradient><linearGradient id="paint59_linear_1_13606" x1="50.298" y1="100.33" x2="50.298" y2="17.201" gradientUnits="userSpaceOnUse"><stop stop-color="#6D512D"/><stop offset=".08" stop-color="#9E875F"/><stop offset=".17" stop-color="#E5D6A8"/><stop offset=".28" stop-color="#E5D6A8"/><stop offset=".44" stop-color="#6B5938"/><stop offset=".6" stop-color="#9E875F"/><stop offset=".88" stop-color="#D0C185"/></linearGradient><linearGradient id="paint60_linear_1_13606" x1="51.989" y1="100.33" x2="51.989" y2="17.202" gradientUnits="userSpaceOnUse"><stop stop-color="#6D512D"/><stop offset=".08" stop-color="#9E875F"/><stop offset=".17" stop-color="#E5D6A8"/><stop offset=".28" stop-color="#E5D6A8"/><stop offset=".44" stop-color="#6B5938"/><stop offset=".6" stop-color="#9E875F"/><stop offset=".88" stop-color="#D0C185"/></linearGradient><linearGradient id="paint61_linear_1_13606" x1="53.788" y1="100.327" x2="53.788" y2="17.198" gradientUnits="userSpaceOnUse"><stop stop-color="#6D512D"/><stop offset=".08" stop-color="#9E875F"/><stop offset=".17" stop-color="#E5D6A8"/><stop offset=".28" stop-color="#E5D6A8"/><stop offset=".44" stop-color="#6B5938"/><stop offset=".6" stop-color="#9E875F"/><stop offset=".88" stop-color="#D0C185"/></linearGradient><linearGradient id="paint62_linear_1_13606" x1="54.337" y1="100.329" x2="54.337" y2="17.2" gradientUnits="userSpaceOnUse"><stop stop-color="#6D512D"/><stop offset=".08" stop-color="#9E875F"/><stop offset=".17" stop-color="#E5D6A8"/><stop offset=".28" stop-color="#E5D6A8"/><stop offset=".44" stop-color="#6B5938"/><stop offset=".6" stop-color="#9E875F"/><stop offset=".88" stop-color="#D0C185"/></linearGradient><linearGradient id="paint63_linear_1_13606" x1="55.732" y1="100.324" x2="55.732" y2="17.195" gradientUnits="userSpaceOnUse"><stop stop-color="#6D512D"/><stop offset=".08" stop-color="#9E875F"/><stop offset=".17" stop-color="#E5D6A8"/><stop offset=".28" stop-color="#E5D6A8"/><stop offset=".44" stop-color="#6B5938"/><stop offset=".6" stop-color="#9E875F"/><stop offset=".88" stop-color="#D0C185"/></linearGradient><linearGradient id="paint64_linear_1_13606" x1="56.383" y1="100.328" x2="56.383" y2="17.199" gradientUnits="userSpaceOnUse"><stop stop-color="#6D512D"/><stop offset=".08" stop-color="#9E875F"/><stop offset=".17" stop-color="#E5D6A8"/><stop offset=".28" stop-color="#E5D6A8"/><stop offset=".44" stop-color="#6B5938"/><stop offset=".6" stop-color="#9E875F"/><stop offset=".88" stop-color="#D0C185"/></linearGradient><linearGradient id="paint65_linear_1_13606" x1=".342" y1="69.94" x2="136.567" y2="69.94" gradientUnits="userSpaceOnUse"><stop stop-color="#6D512D"/><stop offset=".08" stop-color="#9E875F"/><stop offset=".17" stop-color="#E5D6A8"/><stop offset=".28" stop-color="#E5D6A8"/><stop offset=".44" stop-color="#6B5938"/><stop offset=".6" stop-color="#9E875F"/><stop offset=".88" stop-color="#D0C185"/></linearGradient><linearGradient id="paint66_linear_1_13606" x1=".341" y1="69.94" x2="136.567" y2="69.94" gradientUnits="userSpaceOnUse"><stop stop-color="#6D512D"/><stop offset=".08" stop-color="#9E875F"/><stop offset=".17" stop-color="#E5D6A8"/><stop offset=".28" stop-color="#E5D6A8"/><stop offset=".44" stop-color="#6B5938"/><stop offset=".6" stop-color="#9E875F"/><stop offset=".88" stop-color="#D0C185"/></linearGradient><linearGradient id="paint67_linear_1_13606" x1=".341" y1="69.941" x2="136.567" y2="69.941" gradientUnits="userSpaceOnUse"><stop stop-color="#6D512D"/><stop offset=".08" stop-color="#9E875F"/><stop offset=".17" stop-color="#E5D6A8"/><stop offset=".28" stop-color="#E5D6A8"/><stop offset=".44" stop-color="#6B5938"/><stop offset=".6" stop-color="#9E875F"/><stop offset=".88" stop-color="#D0C185"/></linearGradient><linearGradient id="paint68_linear_1_13606" x1=".342" y1="69.944" x2="136.568" y2="69.944" gradientUnits="userSpaceOnUse"><stop stop-color="#6D512D"/><stop offset=".08" stop-color="#9E875F"/><stop offset=".17" stop-color="#E5D6A8"/><stop offset=".28" stop-color="#E5D6A8"/><stop offset=".44" stop-color="#6B5938"/><stop offset=".6" stop-color="#9E875F"/><stop offset=".88" stop-color="#D0C185"/></linearGradient><linearGradient id="paint69_linear_1_13606" x1=".342" y1="69.94" x2="136.568" y2="69.94" gradientUnits="userSpaceOnUse"><stop stop-color="#6D512D"/><stop offset=".08" stop-color="#9E875F"/><stop offset=".17" stop-color="#E5D6A8"/><stop offset=".28" stop-color="#E5D6A8"/><stop offset=".44" stop-color="#6B5938"/><stop offset=".6" stop-color="#9E875F"/><stop offset=".88" stop-color="#D0C185"/></linearGradient><linearGradient id="paint70_linear_1_13606" x1=".341" y1="69.944" x2="136.566" y2="69.944" gradientUnits="userSpaceOnUse"><stop stop-color="#6D512D"/><stop offset=".08" stop-color="#9E875F"/><stop offset=".17" stop-color="#E5D6A8"/><stop offset=".28" stop-color="#E5D6A8"/><stop offset=".44" stop-color="#6B5938"/><stop offset=".6" stop-color="#9E875F"/><stop offset=".88" stop-color="#D0C185"/></linearGradient><linearGradient id="paint71_linear_1_13606" x1=".341" y1="70.003" x2="136.566" y2="70.003" gradientUnits="userSpaceOnUse"><stop stop-color="#6D512D"/><stop offset=".08" stop-color="#9E875F"/><stop offset=".17" stop-color="#E5D6A8"/><stop offset=".28" stop-color="#E5D6A8"/><stop offset=".44" stop-color="#6B5938"/><stop offset=".6" stop-color="#9E875F"/><stop offset=".88" stop-color="#D0C185"/></linearGradient><linearGradient id="paint72_linear_1_13606" x1=".341" y1="69.944" x2="136.567" y2="69.944" gradientUnits="userSpaceOnUse"><stop stop-color="#6D512D"/><stop offset=".08" stop-color="#9E875F"/><stop offset=".17" stop-color="#E5D6A8"/><stop offset=".28" stop-color="#E5D6A8"/><stop offset=".44" stop-color="#6B5938"/><stop offset=".6" stop-color="#9E875F"/><stop offset=".88" stop-color="#D0C185"/></linearGradient><linearGradient id="paint73_linear_1_13606" x1=".342" y1="69.949" x2="136.567" y2="69.949" gradientUnits="userSpaceOnUse"><stop stop-color="#6D512D"/><stop offset=".08" stop-color="#9E875F"/><stop offset=".17" stop-color="#E5D6A8"/><stop offset=".28" stop-color="#E5D6A8"/><stop offset=".44" stop-color="#6B5938"/><stop offset=".6" stop-color="#9E875F"/><stop offset=".88" stop-color="#D0C185"/></linearGradient><linearGradient id="paint74_linear_1_13606" x1=".342" y1="70.463" x2="136.567" y2="70.463" gradientUnits="userSpaceOnUse"><stop stop-color="#6D512D"/><stop offset=".08" stop-color="#9E875F"/><stop offset=".17" stop-color="#E5D6A8"/><stop offset=".28" stop-color="#E5D6A8"/><stop offset=".44" stop-color="#6B5938"/><stop offset=".6" stop-color="#9E875F"/><stop offset=".88" stop-color="#D0C185"/></linearGradient><linearGradient id="paint75_linear_1_13606" x1=".342" y1="69.949" x2="136.567" y2="69.949" gradientUnits="userSpaceOnUse"><stop stop-color="#6D512D"/><stop offset=".08" stop-color="#9E875F"/><stop offset=".17" stop-color="#E5D6A8"/><stop offset=".28" stop-color="#E5D6A8"/><stop offset=".44" stop-color="#6B5938"/><stop offset=".6" stop-color="#9E875F"/><stop offset=".88" stop-color="#D0C185"/></linearGradient><linearGradient id="paint76_linear_1_13606" x1=".341" y1="69.948" x2="136.566" y2="69.948" gradientUnits="userSpaceOnUse"><stop stop-color="#6D512D"/><stop offset=".08" stop-color="#9E875F"/><stop offset=".17" stop-color="#E5D6A8"/><stop offset=".28" stop-color="#E5D6A8"/><stop offset=".44" stop-color="#6B5938"/><stop offset=".6" stop-color="#9E875F"/><stop offset=".88" stop-color="#D0C185"/></linearGradient><linearGradient id="paint77_linear_1_13606" x1=".342" y1="69.949" x2="136.568" y2="69.949" gradientUnits="userSpaceOnUse"><stop stop-color="#6D512D"/><stop offset=".08" stop-color="#9E875F"/><stop offset=".17" stop-color="#E5D6A8"/><stop offset=".28" stop-color="#E5D6A8"/><stop offset=".44" stop-color="#6B5938"/><stop offset=".6" stop-color="#9E875F"/><stop offset=".88" stop-color="#D0C185"/></linearGradient><linearGradient id="paint78_linear_1_13606" x1=".342" y1="69.948" x2="136.568" y2="69.948" gradientUnits="userSpaceOnUse"><stop stop-color="#6D512D"/><stop offset=".08" stop-color="#9E875F"/><stop offset=".17" stop-color="#E5D6A8"/><stop offset=".28" stop-color="#E5D6A8"/><stop offset=".44" stop-color="#6B5938"/><stop offset=".6" stop-color="#9E875F"/><stop offset=".88" stop-color="#D0C185"/></linearGradient><linearGradient id="paint79_linear_1_13606" x1=".341" y1="69.948" x2="136.566" y2="69.948" gradientUnits="userSpaceOnUse"><stop stop-color="#6D512D"/><stop offset=".08" stop-color="#9E875F"/><stop offset=".17" stop-color="#E5D6A8"/><stop offset=".28" stop-color="#E5D6A8"/><stop offset=".44" stop-color="#6B5938"/><stop offset=".6" stop-color="#9E875F"/><stop offset=".88" stop-color="#D0C185"/></linearGradient><linearGradient id="paint80_linear_1_13606" x1=".342" y1="69.948" x2="136.567" y2="69.948" gradientUnits="userSpaceOnUse"><stop stop-color="#6D512D"/><stop offset=".08" stop-color="#9E875F"/><stop offset=".17" stop-color="#E5D6A8"/><stop offset=".28" stop-color="#E5D6A8"/><stop offset=".44" stop-color="#6B5938"/><stop offset=".6" stop-color="#9E875F"/><stop offset=".88" stop-color="#D0C185"/></linearGradient><linearGradient id="paint81_linear_1_13606" x1=".363" y1="78.951" x2="18.305" y2="78.951" gradientUnits="userSpaceOnUse"><stop stop-color="#6D512D"/><stop offset=".08" stop-color="#9E875F"/><stop offset=".17" stop-color="#E5D6A8"/><stop offset=".28" stop-color="#E5D6A8"/><stop offset=".44" stop-color="#6B5938"/><stop offset=".6" stop-color="#9E875F"/><stop offset=".88" stop-color="#D0C185"/></linearGradient><linearGradient id="paint82_linear_1_13606" x1="119.059" y1="78.951" x2="137" y2="78.951" gradientUnits="userSpaceOnUse"><stop stop-color="#6D512D"/><stop offset=".08" stop-color="#9E875F"/><stop offset=".17" stop-color="#E5D6A8"/><stop offset=".28" stop-color="#E5D6A8"/><stop offset=".44" stop-color="#6B5938"/><stop offset=".6" stop-color="#9E875F"/><stop offset=".88" stop-color="#D0C185"/></linearGradient><linearGradient id="paint83_linear_1_13606" x1="24.06" y1="81.358" x2="114.255" y2="67.302" gradientUnits="userSpaceOnUse"><stop stop-color="#6D512D"/><stop offset=".08" stop-color="#9E875F"/><stop offset=".17" stop-color="#E5D6A8"/><stop offset=".28" stop-color="#E5D6A8"/><stop offset=".44" stop-color="#6B5938"/><stop offset=".6" stop-color="#9E875F"/><stop offset=".88" stop-color="#D0C185"/></linearGradient><linearGradient id="paint84_linear_1_13606" x1="24.306" y1="82.934" x2="114.501" y2="68.875" gradientUnits="userSpaceOnUse"><stop stop-color="#6D512D"/><stop offset=".08" stop-color="#9E875F"/><stop offset=".17" stop-color="#E5D6A8"/><stop offset=".28" stop-color="#E5D6A8"/><stop offset=".44" stop-color="#6B5938"/><stop offset=".6" stop-color="#9E875F"/><stop offset=".88" stop-color="#D0C185"/></linearGradient><linearGradient id="paint85_linear_1_13606" x1="24.493" y1="84.129" x2="114.688" y2="70.069" gradientUnits="userSpaceOnUse"><stop stop-color="#6D512D"/><stop offset=".08" stop-color="#9E875F"/><stop offset=".17" stop-color="#E5D6A8"/><stop offset=".28" stop-color="#E5D6A8"/><stop offset=".44" stop-color="#6B5938"/><stop offset=".6" stop-color="#9E875F"/><stop offset=".88" stop-color="#D0C185"/></linearGradient><linearGradient id="paint86_linear_1_13606" x1="24.535" y1="84.402" x2="114.73" y2="70.342" gradientUnits="userSpaceOnUse"><stop stop-color="#6D512D"/><stop offset=".08" stop-color="#9E875F"/><stop offset=".17" stop-color="#E5D6A8"/><stop offset=".28" stop-color="#E5D6A8"/><stop offset=".44" stop-color="#6B5938"/><stop offset=".6" stop-color="#9E875F"/><stop offset=".88" stop-color="#D0C185"/></linearGradient><linearGradient id="paint87_linear_1_13606" x1="24.655" y1="85.178" x2="114.85" y2="71.119" gradientUnits="userSpaceOnUse"><stop stop-color="#6D512D"/><stop offset=".08" stop-color="#9E875F"/><stop offset=".17" stop-color="#E5D6A8"/><stop offset=".28" stop-color="#E5D6A8"/><stop offset=".44" stop-color="#6B5938"/><stop offset=".6" stop-color="#9E875F"/><stop offset=".88" stop-color="#D0C185"/></linearGradient><linearGradient id="paint88_linear_1_13606" x1="25.213" y1="88.765" x2="115.412" y2="74.71" gradientUnits="userSpaceOnUse"><stop stop-color="#6D512D"/><stop offset=".08" stop-color="#9E875F"/><stop offset=".17" stop-color="#E5D6A8"/><stop offset=".28" stop-color="#E5D6A8"/><stop offset=".44" stop-color="#6B5938"/><stop offset=".6" stop-color="#9E875F"/><stop offset=".88" stop-color="#D0C185"/></linearGradient><linearGradient id="paint89_linear_1_13606" x1="25.451" y1="90.283" x2="115.646" y2="76.228" gradientUnits="userSpaceOnUse"><stop stop-color="#6D512D"/><stop offset=".08" stop-color="#9E875F"/><stop offset=".17" stop-color="#E5D6A8"/><stop offset=".28" stop-color="#E5D6A8"/><stop offset=".44" stop-color="#6B5938"/><stop offset=".6" stop-color="#9E875F"/><stop offset=".88" stop-color="#D0C185"/></linearGradient><linearGradient id="paint90_linear_1_13606" x1="25.584" y1="91.128" x2="115.779" y2="77.069" gradientUnits="userSpaceOnUse"><stop stop-color="#6D512D"/><stop offset=".08" stop-color="#9E875F"/><stop offset=".17" stop-color="#E5D6A8"/><stop offset=".28" stop-color="#E5D6A8"/><stop offset=".44" stop-color="#6B5938"/><stop offset=".6" stop-color="#9E875F"/><stop offset=".88" stop-color="#D0C185"/></linearGradient><linearGradient id="paint91_linear_1_13606" x1="25.683" y1="91.788" x2="115.882" y2="77.733" gradientUnits="userSpaceOnUse"><stop stop-color="#6D512D"/><stop offset=".08" stop-color="#9E875F"/><stop offset=".17" stop-color="#E5D6A8"/><stop offset=".28" stop-color="#E5D6A8"/><stop offset=".44" stop-color="#6B5938"/><stop offset=".6" stop-color="#9E875F"/><stop offset=".88" stop-color="#D0C185"/></linearGradient><linearGradient id="paint92_linear_1_13606" x1="25.797" y1="92.509" x2="115.996" y2="78.45" gradientUnits="userSpaceOnUse"><stop stop-color="#6D512D"/><stop offset=".08" stop-color="#9E875F"/><stop offset=".17" stop-color="#E5D6A8"/><stop offset=".28" stop-color="#E5D6A8"/><stop offset=".44" stop-color="#6B5938"/><stop offset=".6" stop-color="#9E875F"/><stop offset=".88" stop-color="#D0C185"/></linearGradient><linearGradient id="paint93_linear_1_13606" x1="25.904" y1="93.196" x2="116.099" y2="79.136" gradientUnits="userSpaceOnUse"><stop stop-color="#6D512D"/><stop offset=".08" stop-color="#9E875F"/><stop offset=".17" stop-color="#E5D6A8"/><stop offset=".28" stop-color="#E5D6A8"/><stop offset=".44" stop-color="#6B5938"/><stop offset=".6" stop-color="#9E875F"/><stop offset=".88" stop-color="#D0C185"/></linearGradient><linearGradient id="paint94_linear_1_13606" x1="26.03" y1="93.991" x2="116.225" y2="79.932" gradientUnits="userSpaceOnUse"><stop stop-color="#6D512D"/><stop offset=".08" stop-color="#9E875F"/><stop offset=".17" stop-color="#E5D6A8"/><stop offset=".28" stop-color="#E5D6A8"/><stop offset=".44" stop-color="#6B5938"/><stop offset=".6" stop-color="#9E875F"/><stop offset=".88" stop-color="#D0C185"/></linearGradient><linearGradient id="paint95_linear_1_13606" x1="26.097" y1="94.422" x2="116.291" y2="80.367" gradientUnits="userSpaceOnUse"><stop stop-color="#6D512D"/><stop offset=".08" stop-color="#9E875F"/><stop offset=".17" stop-color="#E5D6A8"/><stop offset=".28" stop-color="#E5D6A8"/><stop offset=".44" stop-color="#6B5938"/><stop offset=".6" stop-color="#9E875F"/><stop offset=".88" stop-color="#D0C185"/></linearGradient><clipPath id="clip0_1_13606"><path fill="#fff" d="M0 0h137v129H0z"/></clipPath></defs></svg>