<svg width="39" height="40" fill="none" xmlns="http://www.w3.org/2000/svg"><circle cx="19.5" cy="19.5" r="18.5" stroke="#000" stroke-width="2"/><mask id="path-2-inside-1_1_13714" fill="#fff"><path fill-rule="evenodd" clip-rule="evenodd" d="M7.43 34.704C9.18 30 13.714 26.648 19.028 26.648h1.303c5.315 0 9.847 3.352 11.598 8.056a19.453 19.453 0 0 1-12.153 4.317h-.194A19.453 19.453 0 0 1 7.43 34.704Z"/></mask><path fill-rule="evenodd" clip-rule="evenodd" d="M7.43 34.704C9.18 30 13.714 26.648 19.028 26.648h1.303c5.315 0 9.847 3.352 11.598 8.056a19.453 19.453 0 0 1-12.153 4.317h-.194A19.453 19.453 0 0 1 7.43 34.704Z" fill="#fff"/><path d="m7.43 34.704-1.875-.697-.502 1.35 1.122.905 1.255-1.558Zm24.5 0 1.255 1.557 1.122-.904-.503-1.35-1.875.697Zm-12.154 4.317v2h.01l-.01-2Zm-.194 0-.01 2h.01v-2Zm-.554-14.373c-6.177 0-11.439 3.896-13.473 9.359l3.749 1.395a10.377 10.377 0 0 1 9.724-6.754v-4Zm1.303 0h-1.303v4h1.303v-4Zm13.473 9.358c-2.034-5.462-7.296-9.358-13.473-9.358v4c4.452 0 8.254 2.807 9.724 6.754l3.749-1.396Zm-3.13-.859a17.452 17.452 0 0 1-10.907 3.874l.02 4a21.453 21.453 0 0 0 13.398-4.76l-2.51-3.114Zm-11.092 7.874h.194v-4h-.194v4Zm.01-4a17.452 17.452 0 0 1-10.907-3.874l-2.51 3.115a21.453 21.453 0 0 0 13.398 4.759l.02-4Z" fill="#000" mask="url('#path-2-inside-1_1_13714')"/><circle cx="19.802" cy="19.486" r="4.861" fill="#fff" stroke="#000" stroke-width="2"/></svg>