<svg width="224" height="51" fill="none" xmlns="http://www.w3.org/2000/svg"><path fill-rule="evenodd" clip-rule="evenodd" d="M111.427 50.748c14.014 0 25.374-11.36 25.374-25.374S125.441 0 111.427 0 86.053 11.36 86.053 25.374s11.36 25.375 25.374 25.375Zm-3.476-30.576a6.256 6.256 0 1 1 6.952 10.402 6.256 6.256 0 0 1-6.952-10.402Zm1.159 8.67a4.17 4.17 0 0 0 5.785-5.785 4.17 4.17 0 1 0-5.785 5.785Zm-3.94-17.024h12.514a7.309 7.309 0 0 1 7.299 7.3V31.63a7.309 7.309 0 0 1-7.299 7.3H105.17a7.309 7.309 0 0 1-7.3-7.3V19.117a7.308 7.308 0 0 1 7.3-7.3Zm16.2 23.5a5.213 5.213 0 0 0 1.527-3.687V19.117a5.213 5.213 0 0 0-5.213-5.214H105.17a5.213 5.213 0 0 0-5.214 5.214v12.514a5.213 5.213 0 0 0 5.214 5.213h12.514c1.382 0 2.709-.549 3.686-1.527Zm-1.864-15.853a1.57 1.57 0 0 0-.195-1.975 1.563 1.563 0 1 0 .195 1.975Z" fill="#94B49F"/><path d="M198.175 0c-14.014 0-25.374 11.36-25.374 25.374s11.36 25.375 25.374 25.375 25.374-11.36 25.374-25.375C223.549 11.36 212.189 0 198.175 0Zm9.759 28.628s2.244 2.215 2.796 3.243c.016.021.024.042.029.053.225.378.278.671.167.89-.185.365-.82.545-1.037.561h-3.964c-.275 0-.851-.071-1.549-.552-.537-.376-1.065-.992-1.581-1.591-.769-.894-1.435-1.666-2.106-1.666a.8.8 0 0 0-.251.04c-.508.164-1.158.888-1.158 2.817 0 .603-.476.95-.812.95h-1.815c-.619 0-3.841-.217-6.696-3.228-3.494-3.687-6.639-11.083-6.666-11.151-.198-.479.212-.735.659-.735h4.004c.534 0 .708.325.83.613.143.336.666 1.67 1.525 3.172 1.393 2.447 2.247 3.441 2.931 3.441a.793.793 0 0 0 .368-.095c.893-.497.727-3.682.687-4.343 0-.124-.003-1.424-.46-2.048-.328-.452-.885-.624-1.224-.687.137-.19.318-.342.526-.447.613-.306 1.718-.351 2.815-.351h.611c1.189.015 1.496.092 1.927.2.872.21.89.772.814 2.7a41.658 41.658 0 0 0-.048 1.894c0 .159-.008.328-.008.508-.026.98-.058 2.093.635 2.55.09.057.194.087.301.087.24 0 .965 0 2.926-3.364a25.63 25.63 0 0 0 1.572-3.368c.04-.068.156-.28.294-.362a.702.702 0 0 1 .328-.076h4.707c.513 0 .864.076.93.275.117.314-.021 1.274-2.17 4.184l-.959 1.266c-1.948 2.553-1.948 2.683.122 4.62ZM25.027 0C11.212 0 0 11.368 0 25.374 0 39.381 11.212 50.75 25.027 50.75c13.814 0 25.026-11.368 25.026-25.375C50.053 11.368 38.841 0 25.027 0Zm11.612 17.255c-.375 4.009-2.002 13.752-2.828 18.244-.35 1.903-1.051 2.537-1.702 2.613-1.451.127-2.553-.964-3.954-1.903-2.202-1.472-3.454-2.385-5.581-3.806-2.478-1.65-.876-2.563.55-4.035.376-.38 6.783-6.292 6.908-6.825a.514.514 0 0 0-.125-.457c-.15-.127-.35-.076-.526-.05-.225.05-3.729 2.41-10.561 7.079-1.001.685-1.902 1.04-2.703 1.015-.9-.026-2.603-.508-3.879-.94-1.577-.507-2.803-.786-2.703-1.674.05-.457.676-.913 1.852-1.395 7.308-3.223 12.163-5.354 14.59-6.37 6.958-2.943 8.385-3.45 9.336-3.45.2 0 .675.05.976.304.25.203.325.482.35.685-.025.152.025.61 0 .965Z" fill="#94B49F"/></svg>