<svg width="28" height="21" fill="none" xmlns="http://www.w3.org/2000/svg"><path fill-rule="evenodd" clip-rule="evenodd" d="M2.194.851a33 33 0 0 1 10.612 0L14 1.046 15.194.85a33 33 0 0 1 10.612 0L28 1.21v18.876l-4.983-.406a30.983 30.983 0 0 0-5.034 0L14 20.003l-3.983-.324a30.982 30.982 0 0 0-5.034 0L0 20.085V1.209L2.194.85ZM13 2.91l-.516-.084a31 31 0 0 0-9.968 0L2 2.91v15.006l2.821-.23a32.982 32.982 0 0 1 5.358 0l2.821.23V2.91Zm2 15.006 2.821-.23a32.982 32.982 0 0 1 5.358 0l2.821.23V2.91l-.516-.084a31 31 0 0 0-9.968 0L15 2.91v15.006Z" fill="#94B49F"/></svg>